<svg width="39" height="39" viewBox="0 0 39 39" fill="none" xmlns="http://www.w3.org/2000/svg">
<g opacity="0.4">
<path d="M19.1367 2.302C15.692 2.302 12.3247 3.32347 9.46054 5.23724C6.59638 7.15101 4.36404 9.87112 3.04582 13.0536C1.72759 16.2361 1.38268 19.738 2.05471 23.1165C2.72673 26.495 4.38551 29.5983 6.82128 32.0341C9.25704 34.4699 12.3604 36.1287 15.7389 36.8007C19.1174 37.4727 22.6193 37.1278 25.8018 35.8096C28.9843 34.4913 31.7044 32.259 33.6181 29.3949C35.5319 26.5307 36.5534 23.1634 36.5534 19.7187C36.5479 15.1012 34.7112 10.6743 31.4461 7.40924C28.1811 4.14416 23.7542 2.30745 19.1367 2.302ZM19.1367 33.9687C16.3183 33.9687 13.5632 33.1329 11.2198 31.5671C8.87644 30.0013 7.04998 27.7758 5.97144 25.1719C4.89289 22.5681 4.61069 19.7029 5.16053 16.9386C5.71037 14.1744 7.06755 11.6353 9.06045 9.6424C11.0533 7.6495 13.5925 6.29232 16.3567 5.74248C19.1209 5.19264 21.9861 5.47484 24.59 6.55339C27.1938 7.63193 29.4194 9.45839 30.9852 11.8018C32.551 14.1452 33.3867 16.9003 33.3867 19.7187C33.3825 23.4967 31.8798 27.1188 29.2084 29.7903C26.5369 32.4618 22.9148 33.9645 19.1367 33.9687Z" fill="black"/>
<path d="M13.1367 19.7188H25.1367" stroke="black" stroke-width="3" stroke-linecap="round"/>
</g>
</svg>
