<svg width="97" height="97" viewBox="0 0 97 97" fill="none" xmlns="http://www.w3.org/2000/svg">
<rect x="0.445312" y="0.71875" width="96" height="96" rx="48" fill="black"/>
<path d="M51.6131 38.0513L49.9325 46.704L41.2797 48.3846L49.9325 50.0652L51.6131 58.7179L53.2936 50.0652L61.9464 48.3846L53.2936 46.704L51.6131 38.0513Z" fill="white"/>
<path d="M39.6091 34.0513L38.6074 38.7162L33.9424 39.7179L38.6074 40.7197L39.6091 45.3846L40.6108 40.7197L45.2758 39.7179L40.6108 38.7162L39.6091 34.0513Z" fill="white"/>
<path d="M39.6091 51.3848L38.6394 56.0818L33.9424 57.0514L38.6394 58.0211L39.6091 62.7181L40.5788 58.0211L45.2758 57.0514L40.5788 56.0818L39.6091 51.3848Z" fill="white"/>
</svg>
