<svg xmlns="http://www.w3.org/2000/svg" xmlns:xlink="http://www.w3.org/1999/xlink"><defs>
<clipPath id="clip0_1_624">
<rect width="40" height="40" fill="white" transform="translate(0 0.71875)"/>
</clipPath>
</defs><symbol id="circle-1" viewBox="0 0 427 427"><g fill="none">
<circle cx="213.768" cy="213.385" r="212.381" stroke="black" stroke-dasharray="2 10"/>
</g></symbol><symbol id="circle-2" viewBox="0 0 714 714"><g fill="none">
<circle opacity="0.3" cx="356.706" cy="357.323" r="356.115" stroke="black" stroke-dasharray="2 10"/>
</g></symbol><symbol id="clothes" viewBox="0 0 65 65"><g fill="none">
<rect x="1.22296" y="1.06086" width="62.3158" height="62.3158" rx="31.1579" stroke="black" stroke-width="1.68421"/>
<path d="M44.1898 19.7557C43.0989 18.6647 41.1005 17.7712 39.749 17.7712H37.293C37.293 20.4849 35.0942 22.6832 32.3806 22.6832C29.6669 22.6832 27.4681 20.4849 27.4681 17.7712H25.0121C23.6606 17.7712 21.6622 18.6647 20.5713 19.7557L15.5385 24.7885L21.1523 30.4028L22.5561 28.999V45.8411H42.205V28.999L43.6088 30.4028L49.2227 24.7885L44.1898 19.7557Z" fill="black"/>
</g></symbol><symbol id="icon-close" viewBox="0 0 24 24"><g fill="none">
<path fill-rule="evenodd" clip-rule="evenodd" d="M18.7071 5.29289C19.0976 5.68342 19.0976 6.31658 18.7071 6.70711L6.70711 18.7071C6.31658 19.0976 5.68342 19.0976 5.29289 18.7071C4.90237 18.3166 4.90237 17.6834 5.29289 17.2929L17.2929 5.29289C17.6834 4.90237 18.3166 4.90237 18.7071 5.29289Z" fill="currentColor"/>
<path fill-rule="evenodd" clip-rule="evenodd" d="M5.29289 5.29289C5.68342 4.90237 6.31658 4.90237 6.70711 5.29289L18.7071 17.2929C19.0976 17.6834 19.0976 18.3166 18.7071 18.7071C18.3166 19.0976 17.6834 19.0976 17.2929 18.7071L5.29289 6.70711C4.90237 6.31658 4.90237 5.68342 5.29289 5.29289Z" fill="currentColor"/>
</g></symbol><symbol id="info-check" viewBox="0 0 25 25"><g fill="none">
<path d="M12.2993 1.69629C10.1237 1.69629 7.99699 2.34143 6.18805 3.55012C4.37911 4.75882 2.96921 6.47678 2.13665 8.48677C1.30408 10.4968 1.08625 12.7085 1.51068 14.8423C1.93512 16.9761 2.98277 18.9361 4.52115 20.4745C6.05952 22.0128 8.01954 23.0605 10.1533 23.4849C12.2871 23.9094 14.4989 23.6915 16.5088 22.859C18.5188 22.0264 20.2368 20.6165 21.4455 18.8076C22.6542 16.9986 23.2993 14.8719 23.2993 12.6963C23.2959 9.77996 22.1359 6.98407 20.0737 4.92191C18.0115 2.85976 15.2156 1.69973 12.2993 1.69629ZM12.2993 21.6963C10.5193 21.6963 8.77923 21.1684 7.29919 20.1795C5.81915 19.1906 4.66559 17.785 3.98441 16.1404C3.30322 14.4959 3.12499 12.6863 3.47225 10.9405C3.81952 9.19465 4.67669 7.591 5.93536 6.33233C7.19403 5.07365 8.79768 4.21649 10.5435 3.86922C12.2893 3.52195 14.0989 3.70018 15.7435 4.38137C17.388 5.06256 18.7936 6.21611 19.7825 7.69616C20.7715 9.1762 21.2993 10.9163 21.2993 12.6963C21.2967 15.0824 20.3476 17.3701 18.6604 19.0573C16.9731 20.7446 14.6855 21.6936 12.2993 21.6963Z" fill="black"/>
<path d="M12.2993 21.6963C10.5193 21.6963 8.77923 21.1684 7.29919 20.1795C5.81915 19.1906 4.66559 17.785 3.98441 16.1404C3.30322 14.4959 3.12499 12.6863 3.47225 10.9405C3.81952 9.19465 4.67669 7.591 5.93536 6.33233C7.19403 5.07365 8.79768 4.21649 10.5435 3.86922C12.2893 3.52195 14.0989 3.70018 15.7435 4.38137C17.388 5.06256 18.7936 6.21611 19.7825 7.69616C20.7715 9.1762 21.2993 10.9163 21.2993 12.6963C21.2967 15.0824 20.3476 17.3701 18.6604 19.0573C16.9731 20.7446 14.6855 21.6936 12.2993 21.6963Z" fill="black"/>
<path d="M16.6258 9.45936L11.3318 14.3124L9.00884 11.9894C8.91659 11.8939 8.80625 11.8177 8.68424 11.7653C8.56224 11.7129 8.43102 11.6853 8.29824 11.6841C8.16546 11.683 8.03378 11.7083 7.91088 11.7585C7.78799 11.8088 7.67634 11.8831 7.58244 11.977C7.48855 12.0709 7.4143 12.1825 7.36402 12.3054C7.31374 12.4283 7.28843 12.56 7.28959 12.6928C7.29074 12.8255 7.31833 12.9568 7.37074 13.0788C7.42315 13.2008 7.49933 13.3111 7.59484 13.4034L10.5948 16.4034C10.7771 16.5856 11.0226 16.6905 11.2803 16.6961C11.538 16.7017 11.7879 16.6076 11.9778 16.4334L17.9778 10.9334C18.1733 10.7541 18.2895 10.5045 18.301 10.2395C18.3124 9.97451 18.2181 9.71583 18.0388 9.52036C17.8596 9.3249 17.61 9.20866 17.345 9.19722C17.08 9.18578 16.8213 9.28008 16.6258 9.45936Z" fill="white"/>
</g></symbol><symbol id="info-minus" viewBox="0 0 39 39"><g fill="none">
<g opacity="0.4">
<path d="M19.1367 2.302C15.692 2.302 12.3247 3.32347 9.46054 5.23724C6.59638 7.15101 4.36404 9.87112 3.04582 13.0536C1.72759 16.2361 1.38268 19.738 2.05471 23.1165C2.72673 26.495 4.38551 29.5983 6.82128 32.0341C9.25704 34.4699 12.3604 36.1287 15.7389 36.8007C19.1174 37.4727 22.6193 37.1278 25.8018 35.8096C28.9843 34.4913 31.7044 32.259 33.6181 29.3949C35.5319 26.5307 36.5534 23.1634 36.5534 19.7187C36.5479 15.1012 34.7112 10.6743 31.4461 7.40924C28.1811 4.14416 23.7542 2.30745 19.1367 2.302ZM19.1367 33.9687C16.3183 33.9687 13.5632 33.1329 11.2198 31.5671C8.87644 30.0013 7.04998 27.7758 5.97144 25.1719C4.89289 22.5681 4.61069 19.7029 5.16053 16.9386C5.71037 14.1744 7.06755 11.6353 9.06045 9.6424C11.0533 7.6495 13.5925 6.29232 16.3567 5.74248C19.1209 5.19264 21.9861 5.47484 24.59 6.55339C27.1938 7.63193 29.4194 9.45839 30.9852 11.8018C32.551 14.1452 33.3867 16.9003 33.3867 19.7187C33.3825 23.4967 31.8798 27.1188 29.2084 29.7903C26.5369 32.4618 22.9148 33.9645 19.1367 33.9687Z" fill="black"/>
<path d="M13.1367 19.7188H25.1367" stroke="black" stroke-width="3" stroke-linecap="round"/>
</g>
</g></symbol><symbol id="instagramm2" viewBox="0 0 33 33"><g fill="none">
<g id="instagramm">
<rect id="Rectangle 1" x="0.5" y="0.71875" width="32" height="32" rx="16"/>
<g id="instagram">
<path d="M16.5 10.1645C18.6205 10.1645 18.9096 10.1645 19.7771 10.1645C20.5482 10.1645 20.9337 10.3573 21.2229 10.4537C21.6084 10.6465 21.8976 10.7428 22.1867 11.032C22.4759 11.3212 22.6687 11.6103 22.7651 11.9959C22.8614 12.285 22.9578 12.6706 23.0542 13.4416C23.0542 14.3091 23.0542 14.5019 23.0542 16.7188C23.0542 18.9356 23.0542 19.1284 23.0542 19.9959C23.0542 20.7669 22.8614 21.1525 22.7651 21.4416C22.5723 21.8272 22.4759 22.1163 22.1867 22.4055C21.8976 22.6947 21.6084 22.8874 21.2229 22.9838C20.9337 23.0802 20.5482 23.1766 19.7771 23.273C18.9096 23.273 18.7169 23.273 16.5 23.273C14.2831 23.273 14.0904 23.273 13.2229 23.273C12.4518 23.273 12.0663 23.0802 11.7771 22.9838C11.3916 22.791 11.1024 22.6947 10.8133 22.4055C10.5241 22.1163 10.3313 21.8272 10.2349 21.4416C10.1386 21.1525 10.0422 20.7669 9.94578 19.9959C9.94578 19.1284 9.94578 18.9356 9.94578 16.7188C9.94578 14.5019 9.94578 14.3091 9.94578 13.4416C9.94578 12.6706 10.1386 12.285 10.2349 11.9959C10.4277 11.6103 10.5241 11.3212 10.8133 11.032C11.1024 10.7428 11.3916 10.5501 11.7771 10.4537C12.0663 10.3573 12.4518 10.2609 13.2229 10.1645C14.0904 10.1645 14.3795 10.1645 16.5 10.1645ZM16.5 8.71875C14.2831 8.71875 14.0904 8.71875 13.2229 8.71875C12.3554 8.71875 11.7771 8.91152 11.2952 9.10429C10.8133 9.29706 10.3313 9.58622 9.8494 10.0681C9.36747 10.5501 9.1747 10.9356 8.88554 11.5139C8.69277 11.9959 8.59639 12.5742 8.5 13.4416C8.5 14.3091 8.5 14.5983 8.5 16.7188C8.5 18.9356 8.5 19.1284 8.5 19.9959C8.5 20.8633 8.69277 21.4416 8.88554 21.9236C9.07831 22.4055 9.36747 22.8874 9.8494 23.3694C10.3313 23.8513 10.7169 24.0441 11.2952 24.3332C11.7771 24.526 12.3554 24.6224 13.2229 24.7188C14.0904 24.7188 14.3795 24.7188 16.5 24.7188C18.6205 24.7188 18.9096 24.7188 19.7771 24.7188C20.6446 24.7188 21.2229 24.526 21.7048 24.3332C22.1867 24.1404 22.6687 23.8513 23.1506 23.3694C23.6325 22.8874 23.8253 22.5019 24.1145 21.9236C24.3072 21.4416 24.4036 20.8633 24.5 19.9959C24.5 19.1284 24.5 18.8392 24.5 16.7188C24.5 14.5983 24.5 14.3091 24.5 13.4416C24.5 12.5742 24.3072 11.9959 24.1145 11.5139C23.9217 11.032 23.6325 10.5501 23.1506 10.0681C22.6687 9.58622 22.2831 9.39345 21.7048 9.10429C21.2229 8.91152 20.6446 8.81514 19.7771 8.71875C18.9096 8.71875 18.7169 8.71875 16.5 8.71875Z" fill="#A0A0A0"/>
<path d="M16.5 12.5742C14.1867 12.5742 12.3554 14.4055 12.3554 16.7188C12.3554 19.032 14.1867 20.8633 16.5 20.8633C18.8133 20.8633 20.6446 19.032 20.6446 16.7188C20.6446 14.4055 18.8133 12.5742 16.5 12.5742ZM16.5 19.4175C15.0542 19.4175 13.8012 18.2609 13.8012 16.7188C13.8012 15.273 14.9578 14.02 16.5 14.02C17.9458 14.02 19.1988 15.1766 19.1988 16.7188C19.1988 18.1645 17.9458 19.4175 16.5 19.4175Z" fill="#A0A0A0"/>
<path d="M20.741 13.4416C21.2733 13.4416 21.7048 13.0101 21.7048 12.4778C21.7048 11.9455 21.2733 11.5139 20.741 11.5139C20.2086 11.5139 19.7771 11.9455 19.7771 12.4778C19.7771 13.0101 20.2086 13.4416 20.741 13.4416Z" fill="currentColor"/>
</g>
</g>
</g></symbol><symbol id="plus" viewBox="0 0 40 41"><g fill="none">
<g clip-path="url(#clip0_1_624)">
<line x1="20" y1="0.71875" x2="20" y2="40.7188" stroke="black" stroke-width="6"/>
<line x1="40" y1="21.7188" x2="-1.31136e-07" y2="21.7187" stroke="black" stroke-width="6"/>
</g>

</g></symbol><symbol id="progress-round" viewBox="0 0 81 80"><g fill="none">
<path d="M47.0138 2.61332C51.869 3.46941 56.508 5.27343 60.666 7.92236C64.824 10.5713 68.4196 14.0133 71.2473 18.0517C74.0751 22.0902 76.0798 26.6461 77.1469 31.4594C78.2139 36.2726 78.3225 41.2488 77.4664 46.104C76.6103 50.9592 74.8063 55.5982 72.1573 59.7562C69.5084 63.9142 66.0664 67.5097 62.0279 70.3375C57.9894 73.1653 53.4335 75.1699 48.6203 76.237C43.807 77.304 38.8308 77.4126 33.9756 76.5565C29.1204 75.7004 24.4813 73.8964 20.3233 71.2475C16.1654 68.5985 12.5698 65.1566 9.74203 61.1181C6.91425 57.0796 4.90959 52.5237 3.84253 47.7105C2.77546 42.8972 2.66688 37.921 3.52299 33.0658C4.37909 28.2106 6.18311 23.5716 8.83205 19.4136C11.481 15.2556 14.923 11.6601 18.9615 8.83234C23 6.00457 27.5559 3.99992 32.3691 2.93286C37.1824 1.8658 42.1586 1.75722 47.0138 2.61332L47.0138 2.61332Z" stroke="#F2F2F2" stroke-width="4"/>
<path d="M62.7193 69.8705C63.3653 70.7508 63.1778 71.9927 62.2663 72.5939C55.5285 77.038 47.5763 79.3228 39.476 79.114C30.7156 78.8882 22.2783 75.7586 15.4896 70.2169C8.70095 64.6752 3.94551 57.0353 1.97034 48.4975C-0.00482595 39.9596 0.912182 31.0075 4.57732 23.0474C8.24246 15.0873 14.448 8.57024 22.2193 4.51997C29.9905 0.469695 38.8871 -0.884294 47.5114 0.670695C56.1357 2.22568 63.9991 6.60154 69.8664 13.1109C75.2915 19.1297 78.7258 26.6571 79.7298 34.6658C79.8656 35.7493 79.0439 36.6992 77.9551 36.7807C76.8662 36.8622 75.923 36.0444 75.7812 34.9617C74.8465 27.8271 71.7676 21.1261 66.9293 15.7583C61.6487 9.89991 54.5716 5.96163 46.8097 4.56214C39.0478 3.16265 31.041 4.38124 24.0468 8.02649C17.0527 11.6717 11.4677 17.5371 8.16908 24.7012C4.87046 31.8653 4.04515 39.9222 5.82281 47.6063C7.60046 55.2903 11.8803 62.1662 17.9902 67.1537C24.1 72.1413 31.6935 74.9579 39.5779 75.1611C46.802 75.3473 53.8953 73.3299 59.9238 69.4014C60.8386 68.8053 62.0732 68.9901 62.7193 69.8705Z" fill="black"/>
</g></symbol><symbol id="puls" viewBox="0 0 97 97"><g fill="none">
<rect x="0.445312" y="0.71875" width="96" height="96" rx="48" fill="black"/>
<path d="M51.6131 38.0513L49.9325 46.704L41.2797 48.3846L49.9325 50.0652L51.6131 58.7179L53.2936 50.0652L61.9464 48.3846L53.2936 46.704L51.6131 38.0513Z" fill="white"/>
<path d="M39.6091 34.0513L38.6074 38.7162L33.9424 39.7179L38.6074 40.7197L39.6091 45.3846L40.6108 40.7197L45.2758 39.7179L40.6108 38.7162L39.6091 34.0513Z" fill="white"/>
<path d="M39.6091 51.3848L38.6394 56.0818L33.9424 57.0514L38.6394 58.0211L39.6091 62.7181L40.5788 58.0211L45.2758 57.0514L40.5788 56.0818L39.6091 51.3848Z" fill="white"/>
</g></symbol><symbol id="stars-assistant" viewBox="0 0 30 15"><g fill="none">
<path opacity="0.2" d="M2.38086 10.7188L2.91967 12.1799L4.38086 12.7188L2.91967 13.2576L2.38086 14.7188L1.84204 13.2576L0.380859 12.7188L1.84204 12.1799L2.38086 10.7188Z" fill="black"/>
<path opacity="0.4" d="M12.3809 5.71875L13.1891 7.91053L15.3809 8.71875L13.1891 9.52697L12.3809 11.7188L11.5726 9.52697L9.38086 8.71875L11.5726 7.91053L12.3809 5.71875Z" fill="black"/>
<path opacity="0.6" d="M25.3809 0.71875L26.4585 3.64112L29.3809 4.71875L26.4585 5.79638L25.3809 8.71875L24.3032 5.79638L21.3809 4.71875L24.3032 3.64112L25.3809 0.71875Z" fill="black"/>
</g></symbol><symbol id="stars-features" viewBox="0 0 31 31"><g fill="none">
<path d="M12.3888 6.73535L13.7893 13.946L20.9999 15.3465L13.7893 16.7469L12.3888 23.9576L10.9884 16.7469L3.77771 15.3465L10.9884 13.946L12.3888 6.73535Z" fill="black"/>
<path d="M22.3921 3.4021L23.2269 7.28954L27.1144 8.12432L23.2269 8.9591L22.3921 12.8465L21.5574 8.9591L17.6699 8.12432L21.5574 7.28954L22.3921 3.4021Z" fill="black"/>
<path d="M22.3921 17.8467L23.2002 21.7608L27.1144 22.5689L23.2002 23.377L22.3921 27.2911L21.5841 23.377L17.6699 22.5689L21.5841 21.7608L22.3921 17.8467Z" fill="black"/>
</g></symbol><symbol id="style" viewBox="0 0 65 65"><g fill="none">
<rect x="0.880859" y="1.21875" width="63" height="63" rx="31.5" stroke="black"/>
<path d="M43.818 26.2953L37.7008 25.4064L34.9651 19.8633C33.9088 17.7228 30.8534 17.722 29.7967 19.8633L27.0609 25.4064L20.9437 26.2953C18.5816 26.6385 17.6368 29.544 19.3466 31.2107L23.7731 35.5255L22.7282 41.6179C22.3246 43.9703 24.7957 45.7668 26.9095 44.6559L32.3809 41.7793L37.8523 44.6559C39.9686 45.7683 42.4362 43.965 42.0335 41.6179L40.9885 35.5255L45.4151 31.2107C47.1242 29.5445 46.181 26.6387 43.818 26.2953ZM23.6048 18.8761L22.1277 16.8431C21.7267 16.2914 20.9543 16.169 20.4026 16.57C19.8508 16.9709 19.7285 17.7433 20.1294 18.2951L21.6065 20.3281C22.0077 20.8801 22.7802 21.0021 23.3316 20.6012C23.8834 20.2004 24.0058 19.4279 23.6048 18.8761ZM18.703 37.0952C18.4922 36.4466 17.7956 36.0913 17.1468 36.3023L14.7083 37.0946C14.0596 37.3053 13.7046 38.0021 13.9154 38.6509C14.1265 39.3009 14.8246 39.6544 15.4717 39.4439L17.9102 38.6515C18.5589 38.4408 18.9139 37.744 18.703 37.0952ZM44.3592 16.57C43.8074 16.169 43.035 16.2913 42.6341 16.8431L41.1569 18.8761C40.756 19.4279 40.8783 20.2004 41.4301 20.6012C41.9822 21.0023 42.7544 20.8797 43.1553 20.3281L44.6324 18.2951C45.0334 17.7433 44.911 16.9709 44.3592 16.57ZM50.0535 37.0946L47.6149 36.3023C46.9662 36.0911 46.2695 36.4465 46.0587 37.0952C45.8479 37.7439 46.2028 38.4407 46.8516 38.6515L49.2901 39.4439C49.9375 39.6545 50.6353 39.3005 50.8464 38.6509C51.0571 38.0022 50.7022 37.3055 50.0535 37.0946ZM32.3809 46.6694C31.6988 46.6694 31.1458 47.2224 31.1458 47.9044V50.4111C31.1458 51.0932 31.6988 51.6462 32.3809 51.6462C33.0629 51.6462 33.6159 51.0932 33.6159 50.4111V47.9044C33.616 47.2224 33.063 46.6694 32.3809 46.6694Z" fill="black"/>
</g></symbol><symbol id="sun" viewBox="0 0 65 65"><g fill="none">
<rect x="1.22296" y="1.56086" width="62.3158" height="62.3158" rx="31.1579" stroke="black" stroke-width="1.68421"/>
<path d="M39.5453 25.1409C37.7274 23.323 35.161 22.1468 32.3807 22.1468C29.6004 22.1468 27.034 23.2696 25.2161 25.1409C23.3982 26.9588 22.222 29.5252 22.222 32.3055C22.222 35.0858 23.3982 37.6522 25.2161 39.4701C27.034 41.288 29.6004 42.4642 32.3807 42.4642C35.161 42.4642 37.7274 41.3414 39.5453 39.4701C41.3631 37.6522 42.5394 35.0858 42.5394 32.3055C42.5394 29.5252 41.4166 26.9588 39.5453 25.1409ZM32.3807 18.9922C33.1292 18.9922 33.7708 18.3506 33.7708 17.6021V13.4851C33.7708 12.7366 33.1292 12.095 32.3807 12.095C31.6322 12.095 30.9906 12.7366 30.9906 13.4851V17.6021C30.9906 18.3506 31.6322 18.9922 32.3807 18.9922ZM43.7692 22.8953L46.7098 19.9546C47.2445 19.4199 47.2445 18.5645 46.7098 18.0298C46.1752 17.4951 45.3197 17.4951 44.785 18.0298L41.8444 20.9705C41.3097 21.5052 41.3097 22.3606 41.8444 22.8953C42.3256 23.43 43.181 23.43 43.7692 22.8953ZM51.2011 30.9154H47.0841C46.3356 30.9154 45.694 31.557 45.694 32.3055C45.694 33.054 46.3356 33.6956 47.0841 33.6956H51.2011C51.9496 33.6956 52.5912 33.054 52.5912 32.3055C52.5912 31.557 51.9496 30.9154 51.2011 30.9154ZM43.7157 41.7157C43.181 41.181 42.3256 41.181 41.7909 41.7157C41.2562 42.2504 41.2562 43.1058 41.7909 43.6405L44.7316 46.5812C45.2662 47.1159 46.1217 47.1159 46.6564 46.5812C47.1911 46.0465 47.1911 45.191 46.6564 44.6564L43.7157 41.7157ZM32.3807 45.6188C31.6322 45.6188 30.9906 46.2604 30.9906 47.0089V51.1259C30.9906 51.8744 31.6322 52.516 32.3807 52.516C33.1292 52.516 33.7708 51.8744 33.7708 51.1259V47.0089C33.7708 46.2604 33.1292 45.6188 32.3807 45.6188ZM20.9922 41.7157L18.0515 44.6564C17.5169 45.191 17.5169 46.0465 18.0515 46.5812C18.5862 47.1159 19.4417 47.1159 19.9763 46.5812L22.917 43.6405C23.4517 43.1058 23.4517 42.2504 22.917 41.7157C22.4358 41.181 21.5804 41.181 20.9922 41.7157ZM19.0674 32.3055C19.0674 31.557 18.4258 30.9154 17.6773 30.9154H13.5603C12.8118 30.9154 12.1702 31.557 12.1702 32.3055C12.1702 33.054 12.8118 33.6956 13.5603 33.6956H17.6773C18.4258 33.6956 19.0674 33.054 19.0674 32.3055ZM20.9922 22.8953C21.5269 23.43 22.3824 23.43 22.917 22.8953C23.4517 22.3606 23.4517 21.5052 22.917 20.9705L19.9763 18.0298C19.4417 17.4951 18.5862 17.4951 18.0515 18.0298C17.5169 18.5645 17.5169 19.4199 18.0515 19.9546L20.9922 22.8953Z" fill="black"/>
</g></symbol><symbol id="time" viewBox="0 0 64 65"><g fill="none">
<rect x="0.5" y="0.71875" width="63" height="63" rx="31.5" stroke="black"/>
<path fill-rule="evenodd" clip-rule="evenodd" d="M28.3646 33.9359C28.6543 33.6619 28.8852 33.3317 29.0429 32.9654C29.2007 32.5992 29.2821 32.2046 29.2821 31.8058C29.2821 31.407 29.2007 31.0124 29.0429 30.6462C28.8852 30.2799 28.6543 29.9497 28.3646 29.6757L28.1965 29.517C25.0613 26.5234 22.6387 24.2128 21.9105 19.3691C21.6491 17.6622 23.1117 16.2463 24.873 16.2463H39.1099C40.8713 16.2463 42.3338 17.6622 42.0756 19.3691C41.3443 24.2128 38.9232 26.5234 35.788 29.517L35.6215 29.6757C35.3317 29.9497 35.1009 30.2799 34.9431 30.6462C34.7854 31.0124 34.704 31.407 34.704 31.8058C34.704 32.2046 34.7854 32.5992 34.9431 32.9654C35.1009 33.3317 35.3317 33.6619 35.6215 33.9359L35.788 34.0946C38.9232 37.0882 41.3458 39.3988 42.0756 44.2425C42.3338 45.9493 40.8713 47.3653 39.1099 47.3653H24.873C23.1117 47.3653 21.6491 45.9493 21.9074 44.2425C22.6387 39.3988 25.0597 37.0882 28.195 34.0946L28.3646 33.9359ZM29.4273 36.5779L29.4148 36.5872C27.0265 38.7235 25.248 40.3137 25.0162 44.2471C25.0093 44.3612 25.0294 44.4753 25.0748 44.5802C25.1202 44.6851 25.1897 44.7778 25.2776 44.8508C25.4168 44.9682 25.5933 45.0322 25.7755 45.0313H38.2106C38.4346 45.0313 38.6369 44.938 38.7754 44.7855C38.8424 44.7135 38.894 44.6287 38.9272 44.5361C38.9604 44.4436 38.9744 44.3453 38.9683 44.2471C38.7365 40.3137 36.9596 38.7235 34.5712 36.5872C33.9395 36.0224 33.2642 35.4187 32.5641 34.7232C32.4118 34.5728 32.2063 34.4884 31.9923 34.4884C31.7782 34.4884 31.5728 34.5728 31.4204 34.7232C30.7249 35.414 30.0543 36.0146 29.4273 36.5763V36.5779Z" fill="black"/>
</g></symbol></svg>