<svg xmlns="http://www.w3.org/2000/svg" xmlns:xlink="http://www.w3.org/1999/xlink"><defs>
<clipPath id="clip0_1_624">
<rect width="40" height="40" fill="white" transform="translate(0 0.71875)"/>
</clipPath>
</defs><symbol id="circle-1" viewBox="0 0 427 427"><g fill="none">
<circle cx="213.768" cy="213.385" r="212.381" stroke="black" stroke-dasharray="2 10"/>
</g></symbol><symbol id="circle-2" viewBox="0 0 714 714"><g fill="none">
<circle opacity="0.3" cx="356.706" cy="357.323" r="356.115" stroke="black" stroke-dasharray="2 10"/>
</g></symbol><symbol id="icon-close" viewBox="0 0 24 24"><g fill="none">
<path fill-rule="evenodd" clip-rule="evenodd" d="M18.7071 5.29289C19.0976 5.68342 19.0976 6.31658 18.7071 6.70711L6.70711 18.7071C6.31658 19.0976 5.68342 19.0976 5.29289 18.7071C4.90237 18.3166 4.90237 17.6834 5.29289 17.2929L17.2929 5.29289C17.6834 4.90237 18.3166 4.90237 18.7071 5.29289Z" fill="currentColor"/>
<path fill-rule="evenodd" clip-rule="evenodd" d="M5.29289 5.29289C5.68342 4.90237 6.31658 4.90237 6.70711 5.29289L18.7071 17.2929C19.0976 17.6834 19.0976 18.3166 18.7071 18.7071C18.3166 19.0976 17.6834 19.0976 17.2929 18.7071L5.29289 6.70711C4.90237 6.31658 4.90237 5.68342 5.29289 5.29289Z" fill="currentColor"/>
</g></symbol><symbol id="info-check" viewBox="0 0 25 25"><g fill="none">
<path d="M12.2993 1.69629C10.1237 1.69629 7.99699 2.34143 6.18805 3.55012C4.37911 4.75882 2.96921 6.47678 2.13665 8.48677C1.30408 10.4968 1.08625 12.7085 1.51068 14.8423C1.93512 16.9761 2.98277 18.9361 4.52115 20.4745C6.05952 22.0128 8.01954 23.0605 10.1533 23.4849C12.2871 23.9094 14.4989 23.6915 16.5088 22.859C18.5188 22.0264 20.2368 20.6165 21.4455 18.8076C22.6542 16.9986 23.2993 14.8719 23.2993 12.6963C23.2959 9.77996 22.1359 6.98407 20.0737 4.92191C18.0115 2.85976 15.2156 1.69973 12.2993 1.69629ZM12.2993 21.6963C10.5193 21.6963 8.77923 21.1684 7.29919 20.1795C5.81915 19.1906 4.66559 17.785 3.98441 16.1404C3.30322 14.4959 3.12499 12.6863 3.47225 10.9405C3.81952 9.19465 4.67669 7.591 5.93536 6.33233C7.19403 5.07365 8.79768 4.21649 10.5435 3.86922C12.2893 3.52195 14.0989 3.70018 15.7435 4.38137C17.388 5.06256 18.7936 6.21611 19.7825 7.69616C20.7715 9.1762 21.2993 10.9163 21.2993 12.6963C21.2967 15.0824 20.3476 17.3701 18.6604 19.0573C16.9731 20.7446 14.6855 21.6936 12.2993 21.6963Z" fill="black"/>
<path d="M12.2993 21.6963C10.5193 21.6963 8.77923 21.1684 7.29919 20.1795C5.81915 19.1906 4.66559 17.785 3.98441 16.1404C3.30322 14.4959 3.12499 12.6863 3.47225 10.9405C3.81952 9.19465 4.67669 7.591 5.93536 6.33233C7.19403 5.07365 8.79768 4.21649 10.5435 3.86922C12.2893 3.52195 14.0989 3.70018 15.7435 4.38137C17.388 5.06256 18.7936 6.21611 19.7825 7.69616C20.7715 9.1762 21.2993 10.9163 21.2993 12.6963C21.2967 15.0824 20.3476 17.3701 18.6604 19.0573C16.9731 20.7446 14.6855 21.6936 12.2993 21.6963Z" fill="black"/>
<path d="M16.6258 9.45936L11.3318 14.3124L9.00884 11.9894C8.91659 11.8939 8.80625 11.8177 8.68424 11.7653C8.56224 11.7129 8.43102 11.6853 8.29824 11.6841C8.16546 11.683 8.03378 11.7083 7.91088 11.7585C7.78799 11.8088 7.67634 11.8831 7.58244 11.977C7.48855 12.0709 7.4143 12.1825 7.36402 12.3054C7.31374 12.4283 7.28843 12.56 7.28959 12.6928C7.29074 12.8255 7.31833 12.9568 7.37074 13.0788C7.42315 13.2008 7.49933 13.3111 7.59484 13.4034L10.5948 16.4034C10.7771 16.5856 11.0226 16.6905 11.2803 16.6961C11.538 16.7017 11.7879 16.6076 11.9778 16.4334L17.9778 10.9334C18.1733 10.7541 18.2895 10.5045 18.301 10.2395C18.3124 9.97451 18.2181 9.71583 18.0388 9.52036C17.8596 9.3249 17.61 9.20866 17.345 9.19722C17.08 9.18578 16.8213 9.28008 16.6258 9.45936Z" fill="white"/>
</g></symbol><symbol id="info-minus" viewBox="0 0 39 39"><g fill="none">
<g opacity="0.4">
<path d="M19.1367 2.302C15.692 2.302 12.3247 3.32347 9.46054 5.23724C6.59638 7.15101 4.36404 9.87112 3.04582 13.0536C1.72759 16.2361 1.38268 19.738 2.05471 23.1165C2.72673 26.495 4.38551 29.5983 6.82128 32.0341C9.25704 34.4699 12.3604 36.1287 15.7389 36.8007C19.1174 37.4727 22.6193 37.1278 25.8018 35.8096C28.9843 34.4913 31.7044 32.259 33.6181 29.3949C35.5319 26.5307 36.5534 23.1634 36.5534 19.7187C36.5479 15.1012 34.7112 10.6743 31.4461 7.40924C28.1811 4.14416 23.7542 2.30745 19.1367 2.302ZM19.1367 33.9687C16.3183 33.9687 13.5632 33.1329 11.2198 31.5671C8.87644 30.0013 7.04998 27.7758 5.97144 25.1719C4.89289 22.5681 4.61069 19.7029 5.16053 16.9386C5.71037 14.1744 7.06755 11.6353 9.06045 9.6424C11.0533 7.6495 13.5925 6.29232 16.3567 5.74248C19.1209 5.19264 21.9861 5.47484 24.59 6.55339C27.1938 7.63193 29.4194 9.45839 30.9852 11.8018C32.551 14.1452 33.3867 16.9003 33.3867 19.7187C33.3825 23.4967 31.8798 27.1188 29.2084 29.7903C26.5369 32.4618 22.9148 33.9645 19.1367 33.9687Z" fill="black"/>
<path d="M13.1367 19.7188H25.1367" stroke="black" stroke-width="3" stroke-linecap="round"/>
</g>
</g></symbol><symbol id="plus" viewBox="0 0 40 41"><g fill="none">
<g clip-path="url(#clip0_1_624)">
<line x1="20" y1="0.71875" x2="20" y2="40.7188" stroke="black" stroke-width="6"/>
<line x1="40" y1="21.7188" x2="-1.31136e-07" y2="21.7187" stroke="black" stroke-width="6"/>
</g>

</g></symbol><symbol id="progress-round" viewBox="0 0 81 80"><g fill="none">
<path d="M47.0138 2.61332C51.869 3.46941 56.508 5.27343 60.666 7.92236C64.824 10.5713 68.4196 14.0133 71.2473 18.0517C74.0751 22.0902 76.0798 26.6461 77.1469 31.4594C78.2139 36.2726 78.3225 41.2488 77.4664 46.104C76.6103 50.9592 74.8063 55.5982 72.1573 59.7562C69.5084 63.9142 66.0664 67.5097 62.0279 70.3375C57.9894 73.1653 53.4335 75.1699 48.6203 76.237C43.807 77.304 38.8308 77.4126 33.9756 76.5565C29.1204 75.7004 24.4813 73.8964 20.3233 71.2475C16.1654 68.5985 12.5698 65.1566 9.74203 61.1181C6.91425 57.0796 4.90959 52.5237 3.84253 47.7105C2.77546 42.8972 2.66688 37.921 3.52299 33.0658C4.37909 28.2106 6.18311 23.5716 8.83205 19.4136C11.481 15.2556 14.923 11.6601 18.9615 8.83234C23 6.00457 27.5559 3.99992 32.3691 2.93286C37.1824 1.8658 42.1586 1.75722 47.0138 2.61332L47.0138 2.61332Z" stroke="#F2F2F2" stroke-width="4"/>
<path d="M62.7193 69.8705C63.3653 70.7508 63.1778 71.9927 62.2663 72.5939C55.5285 77.038 47.5763 79.3228 39.476 79.114C30.7156 78.8882 22.2783 75.7586 15.4896 70.2169C8.70095 64.6752 3.94551 57.0353 1.97034 48.4975C-0.00482595 39.9596 0.912182 31.0075 4.57732 23.0474C8.24246 15.0873 14.448 8.57024 22.2193 4.51997C29.9905 0.469695 38.8871 -0.884294 47.5114 0.670695C56.1357 2.22568 63.9991 6.60154 69.8664 13.1109C75.2915 19.1297 78.7258 26.6571 79.7298 34.6658C79.8656 35.7493 79.0439 36.6992 77.9551 36.7807C76.8662 36.8622 75.923 36.0444 75.7812 34.9617C74.8465 27.8271 71.7676 21.1261 66.9293 15.7583C61.6487 9.89991 54.5716 5.96163 46.8097 4.56214C39.0478 3.16265 31.041 4.38124 24.0468 8.02649C17.0527 11.6717 11.4677 17.5371 8.16908 24.7012C4.87046 31.8653 4.04515 39.9222 5.82281 47.6063C7.60046 55.2903 11.8803 62.1662 17.9902 67.1537C24.1 72.1413 31.6935 74.9579 39.5779 75.1611C46.802 75.3473 53.8953 73.3299 59.9238 69.4014C60.8386 68.8053 62.0732 68.9901 62.7193 69.8705Z" fill="black"/>
</g></symbol><symbol id="puls" viewBox="0 0 97 97"><g fill="none">
<rect x="0.445312" y="0.71875" width="96" height="96" rx="48" fill="black"/>
<path d="M51.6131 38.0513L49.9325 46.704L41.2797 48.3846L49.9325 50.0652L51.6131 58.7179L53.2936 50.0652L61.9464 48.3846L53.2936 46.704L51.6131 38.0513Z" fill="white"/>
<path d="M39.6091 34.0513L38.6074 38.7162L33.9424 39.7179L38.6074 40.7197L39.6091 45.3846L40.6108 40.7197L45.2758 39.7179L40.6108 38.7162L39.6091 34.0513Z" fill="white"/>
<path d="M39.6091 51.3848L38.6394 56.0818L33.9424 57.0514L38.6394 58.0211L39.6091 62.7181L40.5788 58.0211L45.2758 57.0514L40.5788 56.0818L39.6091 51.3848Z" fill="white"/>
</g></symbol><symbol id="stars-features" viewBox="0 0 31 31"><g fill="none">
<path d="M12.3888 6.73535L13.7893 13.946L20.9999 15.3465L13.7893 16.7469L12.3888 23.9576L10.9884 16.7469L3.77771 15.3465L10.9884 13.946L12.3888 6.73535Z" fill="black"/>
<path d="M22.3921 3.4021L23.2269 7.28954L27.1144 8.12432L23.2269 8.9591L22.3921 12.8465L21.5574 8.9591L17.6699 8.12432L21.5574 7.28954L22.3921 3.4021Z" fill="black"/>
<path d="M22.3921 17.8467L23.2002 21.7608L27.1144 22.5689L23.2002 23.377L22.3921 27.2911L21.5841 23.377L17.6699 22.5689L21.5841 21.7608L22.3921 17.8467Z" fill="black"/>
</g></symbol></svg>