<svg width="167" height="51" viewBox="0 0 167 51" fill="none" xmlns="http://www.w3.org/2000/svg">
<g id="Group">
<path id="Vector" d="M166.072 44.9524C166.072 47.617 163.946 49.7753 161.317 49.7753H5.68949C3.06116 49.7753 0.927734 47.617 0.927734 44.9524V6.49131C0.927734 3.82801 3.06116 1.66211 5.68949 1.66211H161.315C163.946 1.66211 166.071 3.82801 166.071 6.49131L166.072 44.9524Z" fill="black"/>
<path id="path16" d="M160.815 1.72031C163.679 1.72031 166.009 4.075 166.009 6.96875V44.4688C166.009 47.3625 163.679 49.7172 160.815 49.7172H6.18518C3.32144 49.7172 0.991176 47.3625 0.991176 44.4688V6.96875C0.991176 4.075 3.32144 1.72031 6.18518 1.72031H160.815ZM160.815 0.718754H6.18518C2.78488 0.718754 0 3.53282 0 6.96875V44.4688C0 47.9047 2.78488 50.7188 6.18518 50.7188H160.815C164.215 50.7188 167 47.9047 167 44.4688V6.96875C167 3.53282 164.215 0.718754 160.815 0.718754Z" fill="#A6A6A6"/>
<g id="Group_2">
<g id="Group_3">
<g id="Vector_2">
<path d="M37.2696 25.4487C37.2337 21.42 40.5342 19.46 40.6851 19.3687C38.8159 16.615 35.9188 16.2387 34.9007 16.2087C32.4674 15.95 30.1072 17.68 28.8677 17.68C27.6034 17.68 25.6947 16.2337 23.6375 16.2762C20.9902 16.3175 18.5137 17.8662 17.1554 20.2712C14.3523 25.175 16.4429 32.3812 19.1285 36.345C20.4719 38.2862 22.0417 40.4537 24.0964 40.3775C26.1066 40.2937 26.8575 39.0825 29.2833 39.0825C31.6869 39.0825 32.392 40.3775 34.4875 40.3287C36.6449 40.2937 38.0032 38.3787 39.2996 36.42C40.8521 34.195 41.4755 32.0037 41.5003 31.8912C41.4496 31.8737 37.3104 30.2775 37.2696 25.4487Z" fill="white"/>
<path d="M33.3111 13.6012C34.3923 12.235 35.132 10.3762 34.9267 8.48999C33.3618 8.55999 31.4048 9.58374 30.2779 10.92C29.2808 12.0975 28.3902 14.0275 28.6202 15.8425C30.3781 15.975 32.1829 14.9462 33.3111 13.6012Z" fill="white"/>
</g>
</g>
</g>
<g id="Group_4">
<path id="Vector_3" d="M66.361 40.0986H63.5517L62.0128 35.2124H56.6639L55.198 40.0986H52.4629L57.7624 23.4636H61.0356L66.361 40.0986ZM61.5489 33.1624L60.1573 28.8186C60.0101 28.3749 59.7342 27.3299 59.3272 25.6849H59.2777C59.1157 26.3924 58.8547 27.4374 58.4959 28.8186L57.129 33.1624H61.5489Z" fill="white"/>
<path id="Vector_4" d="M79.9896 33.9537C79.9896 35.9937 79.444 37.6062 78.353 38.7899C77.3757 39.8437 76.1622 40.3699 74.7136 40.3699C73.15 40.3699 72.0268 39.8024 71.3427 38.6674H71.2932V44.9862H68.6558V32.0524C68.6558 30.7699 68.6224 29.4537 68.5581 28.1037H70.8776L71.0248 30.0049H71.0742C71.9538 28.5724 73.2885 27.8574 75.0798 27.8574C76.4801 27.8574 77.6491 28.4162 78.5843 29.5349C79.522 30.6549 79.9896 32.1274 79.9896 33.9537ZM77.3027 34.0512C77.3027 32.8837 77.0429 31.9212 76.5209 31.1637C75.9506 30.3737 75.1849 29.9787 74.225 29.9787C73.5743 29.9787 72.983 30.1987 72.4548 30.6324C71.9253 31.0699 71.5789 31.6412 71.4169 32.3487C71.3353 32.6787 71.2944 32.9487 71.2944 33.1612V35.1612C71.2944 36.0337 71.5592 36.7699 72.0886 37.3712C72.6181 37.9724 73.3059 38.2724 74.152 38.2724C75.1453 38.2724 75.9185 37.8849 76.4714 37.1124C77.0256 36.3387 77.3027 35.3187 77.3027 34.0512Z" fill="white"/>
<path id="Vector_5" d="M93.6426 33.9537C93.6426 35.9937 93.0971 37.6062 92.0048 38.7899C91.0288 39.8437 89.8152 40.3699 88.3667 40.3699C86.803 40.3699 85.6798 39.8024 84.997 38.6674H84.9475V44.9862H82.3101V32.0524C82.3101 30.7699 82.2767 29.4537 82.2124 28.1037H84.5318L84.6791 30.0049H84.7285C85.6068 28.5724 86.9416 27.8574 88.7341 27.8574C90.1332 27.8574 91.3022 28.4162 92.2398 29.5349C93.1738 30.6549 93.6426 32.1274 93.6426 33.9537ZM90.9558 34.0512C90.9558 32.8837 90.6948 31.9212 90.1727 31.1637C89.6025 30.3737 88.8392 29.9787 87.878 29.9787C87.2261 29.9787 86.6361 30.1987 86.1066 30.6324C85.5771 31.0699 85.232 31.6412 85.07 32.3487C84.9895 32.6787 84.9475 32.9487 84.9475 33.1612V35.1612C84.9475 36.0337 85.2122 36.7699 85.7392 37.3712C86.2686 37.9712 86.9564 38.2724 87.8051 38.2724C88.7984 38.2724 89.5715 37.8849 90.1245 37.1124C90.6787 36.3387 90.9558 35.3187 90.9558 34.0512Z" fill="white"/>
<path id="Vector_6" d="M108.908 35.4337C108.908 36.8487 108.422 38 107.446 38.8887C106.373 39.86 104.88 40.345 102.961 40.345C101.19 40.345 99.7698 40 98.6948 39.3087L99.3059 37.0875C100.464 37.795 101.734 38.15 103.118 38.15C104.112 38.15 104.885 37.9225 105.44 37.47C105.993 37.0175 106.269 36.41 106.269 35.6525C106.269 34.9775 106.042 34.4087 105.585 33.9475C105.131 33.4862 104.373 33.0575 103.314 32.6612C100.432 31.575 98.9917 29.9837 98.9917 27.8912C98.9917 26.5237 99.4964 25.4025 100.507 24.53C101.514 23.6562 102.857 23.22 104.537 23.22C106.035 23.22 107.28 23.4837 108.273 24.01L107.614 26.1825C106.686 25.6725 105.637 25.4175 104.463 25.4175C103.535 25.4175 102.81 25.6487 102.291 26.1087C101.852 26.52 101.632 27.0212 101.632 27.615C101.632 28.2725 101.883 28.8162 102.387 29.2437C102.827 29.6387 103.624 30.0662 104.782 30.5275C106.199 31.1037 107.239 31.7775 107.908 32.55C108.575 33.32 108.908 34.2837 108.908 35.4337Z" fill="white"/>
<path id="Vector_7" d="M117.628 30.1037H114.721V35.9275C114.721 37.4087 115.233 38.1487 116.26 38.1487C116.731 38.1487 117.122 38.1075 117.431 38.025L117.504 40.0487C116.984 40.245 116.3 40.3437 115.453 40.3437C114.411 40.3437 113.597 40.0225 113.01 39.3812C112.425 38.7387 112.13 37.6612 112.13 36.1475V30.1012H110.398V28.1012H112.13V25.905L114.721 25.115V28.1012H117.628V30.1037Z" fill="white"/>
<path id="Vector_8" d="M130.744 34.0024C130.744 35.8461 130.222 37.3599 129.18 38.5436C128.088 39.7624 126.638 40.3699 124.831 40.3699C123.089 40.3699 121.702 39.7861 120.668 38.6186C119.634 37.4511 119.117 35.9774 119.117 34.2011C119.117 32.3424 119.649 30.8199 120.716 29.6361C121.781 28.4511 123.219 27.8586 125.026 27.8586C126.768 27.8586 128.169 28.4424 129.227 29.6111C130.239 30.7449 130.744 32.2086 130.744 34.0024ZM128.007 34.0886C128.007 32.9824 127.773 32.0336 127.3 31.2424C126.747 30.2849 125.956 29.8074 124.932 29.8074C123.872 29.8074 123.067 30.2861 122.514 31.2424C122.04 32.0349 121.806 32.9986 121.806 34.1386C121.806 35.2449 122.04 36.1936 122.514 36.9836C123.084 37.9411 123.881 38.4186 124.909 38.4186C125.915 38.4186 126.706 37.9311 127.276 36.9586C127.762 36.1524 128.007 35.1936 128.007 34.0886Z" fill="white"/>
<path id="Vector_9" d="M139.316 30.4474C139.055 30.3987 138.777 30.3737 138.485 30.3737C137.557 30.3737 136.84 30.7274 136.335 31.4362C135.896 32.0612 135.676 32.8512 135.676 33.8049V40.0987H133.04L133.064 31.8812C133.064 30.4987 133.031 29.2399 132.965 28.1049H135.263L135.359 30.3999H135.432C135.71 29.6112 136.149 28.9762 136.751 28.4999C137.338 28.0712 137.973 27.8574 138.657 27.8574C138.901 27.8574 139.121 27.8749 139.316 27.9062V30.4474Z" fill="white"/>
<path id="Vector_10" d="M151.111 33.5337C151.111 34.0112 151.081 34.4137 151.015 34.7425H143.103C143.134 35.9275 143.516 36.8337 144.251 37.4587C144.918 38.0175 145.78 38.2975 146.839 38.2975C148.01 38.2975 149.079 38.1087 150.04 37.73L150.453 39.58C149.33 40.075 148.004 40.3212 146.474 40.3212C144.633 40.3212 143.188 39.7737 142.137 38.68C141.088 37.5862 140.562 36.1175 140.562 34.275C140.562 32.4662 141.051 30.96 142.029 29.7587C143.053 28.4762 144.438 27.835 146.179 27.835C147.89 27.835 149.185 28.4762 150.065 29.7587C150.761 30.7775 151.111 32.0375 151.111 33.5337ZM148.597 32.8425C148.614 32.0525 148.442 31.37 148.084 30.7937C147.628 30.0525 146.927 29.6825 145.983 29.6825C145.12 29.6825 144.419 30.0437 143.883 30.7687C143.444 31.345 143.183 32.0362 143.103 32.8412H148.597V32.8425Z" fill="white"/>
</g>
<g id="Group_5">
<g id="Group_6">
<path id="Vector_11" d="M60.6767 13.2301C60.6767 14.7014 60.24 15.8089 59.3679 16.5526C58.5601 17.2389 57.4121 17.5826 55.9252 17.5826C55.1879 17.5826 54.557 17.5501 54.0288 17.4851V9.44637C54.7178 9.33387 55.4601 9.27637 56.2617 9.27637C57.6781 9.27637 58.7456 9.58762 59.4656 10.2101C60.2721 10.9139 60.6767 11.9201 60.6767 13.2301ZM59.3097 13.2664C59.3097 12.3126 59.0598 11.5814 58.5601 11.0714C58.0603 10.5626 57.3305 10.3076 56.3693 10.3076C55.9611 10.3076 55.6135 10.3351 55.3252 10.3926V16.5039C55.4848 16.5289 55.7767 16.5401 56.201 16.5401C57.1932 16.5401 57.9589 16.2614 58.4982 15.7039C59.0376 15.1464 59.3097 14.3339 59.3097 13.2664Z" fill="white"/>
<path id="Vector_12" d="M67.9243 14.5151C67.9243 15.4213 67.6682 16.1638 67.1561 16.7463C66.6192 17.3451 65.9079 17.6438 65.0197 17.6438C64.1637 17.6438 63.4821 17.3576 62.9737 16.7826C62.4665 16.2088 62.2129 15.4851 62.2129 14.6126C62.2129 13.7001 62.4739 12.9513 62.9984 12.3701C63.5229 11.7888 64.228 11.4976 65.1162 11.4976C65.9722 11.4976 66.66 11.7838 67.1808 12.3576C67.6756 12.9151 67.9243 13.6351 67.9243 14.5151ZM66.5796 14.5576C66.5796 14.0138 66.4634 13.5476 66.232 13.1588C65.9599 12.6888 65.5727 12.4538 65.0692 12.4538C64.5484 12.4538 64.1526 12.6888 63.8804 13.1588C63.6479 13.5476 63.5328 14.0213 63.5328 14.5813C63.5328 15.1251 63.6491 15.5913 63.8804 15.9801C64.1612 16.4501 64.5521 16.6851 65.0568 16.6851C65.5517 16.6851 65.9401 16.4463 66.2197 15.9676C66.4596 15.5713 66.5796 15.1013 66.5796 14.5576Z" fill="white"/>
<path id="Vector_13" d="M77.6428 11.6177L75.8182 17.5102H74.6306L73.8748 14.9514C73.6831 14.3127 73.5272 13.6777 73.406 13.0477H73.3825C73.2699 13.6952 73.114 14.3289 72.9136 14.9514L72.1108 17.5102H70.9096L69.1938 11.6177H70.5261L71.1855 14.4189C71.3451 15.0814 71.4762 15.7127 71.5813 16.3102H71.6048C71.7013 15.8177 71.8609 15.1902 72.086 14.4314L72.9136 11.6189H73.97L74.763 14.3714C74.9547 15.0427 75.1106 15.6889 75.2306 16.3114H75.2665C75.3543 15.7052 75.4867 15.0589 75.6623 14.3714L76.3699 11.6189H77.6428V11.6177Z" fill="white"/>
<path id="Vector_14" d="M84.3634 17.5101H83.067V14.1351C83.067 13.0951 82.6761 12.5751 81.8918 12.5751C81.5071 12.5751 81.1966 12.7176 80.9553 13.0039C80.7166 13.2901 80.5954 13.6276 80.5954 14.0139V17.5089H79.299V13.3014C79.299 12.7839 79.2829 12.2226 79.252 11.6151H80.3913L80.4519 12.5364H80.4878C80.6387 12.2501 80.8638 12.0139 81.1595 11.8251C81.5108 11.6051 81.9042 11.4939 82.3346 11.4939C82.8789 11.4939 83.3317 11.6714 83.6917 12.0276C84.1395 12.4639 84.3634 13.1151 84.3634 13.9801V17.5101Z" fill="white"/>
<path id="Vector_15" d="M87.9382 17.5101H86.6431V8.91382H87.9382V17.5101Z" fill="white"/>
<path id="Vector_16" d="M95.5708 14.5151C95.5708 15.4213 95.3147 16.1638 94.8026 16.7463C94.2657 17.3451 93.5532 17.6438 92.6662 17.6438C91.809 17.6438 91.1273 17.3576 90.6201 16.7826C90.113 16.2088 89.8594 15.4851 89.8594 14.6126C89.8594 13.7001 90.1204 12.9513 90.6449 12.3701C91.1694 11.7888 91.8745 11.4976 92.7615 11.4976C93.6187 11.4976 94.3053 11.7838 94.8273 12.3576C95.3221 12.9151 95.5708 13.6351 95.5708 14.5151ZM94.2249 14.5576C94.2249 14.0138 94.1086 13.5476 93.8773 13.1588C93.6064 12.6888 93.2179 12.4538 92.7157 12.4538C92.1937 12.4538 91.7978 12.6888 91.5269 13.1588C91.2943 13.5476 91.1793 14.0213 91.1793 14.5813C91.1793 15.1251 91.2956 15.5913 91.5269 15.9801C91.8077 16.4501 92.1986 16.6851 92.7033 16.6851C93.1981 16.6851 93.5853 16.4463 93.8649 15.9676C94.1061 15.5713 94.2249 15.1013 94.2249 14.5576Z" fill="white"/>
<path id="Vector_17" d="M101.845 17.5101H100.681L100.585 16.8313H100.549C100.151 17.3726 99.5829 17.6438 98.8456 17.6438C98.2951 17.6438 97.8498 17.4651 97.5146 17.1101C97.2103 16.7876 97.0581 16.3863 97.0581 15.9101C97.0581 15.1901 97.355 14.6413 97.9525 14.2613C98.5487 13.8813 99.3874 13.6951 100.467 13.7038V13.5938C100.467 12.8176 100.064 12.4301 99.2563 12.4301C98.6811 12.4301 98.1739 12.5763 97.736 12.8663L97.4725 12.0063C98.0143 11.6676 98.6836 11.4976 99.4728 11.4976C100.997 11.4976 101.761 12.3101 101.761 13.9351V16.1051C101.761 16.6938 101.79 17.1626 101.845 17.5101ZM100.5 15.4851V14.5763C99.0695 14.5513 98.3545 14.9476 98.3545 15.7638C98.3545 16.0713 98.4362 16.3013 98.6032 16.4551C98.7702 16.6088 98.9829 16.6851 99.2365 16.6851C99.521 16.6851 99.787 16.5938 100.029 16.4126C100.273 16.2301 100.423 15.9988 100.479 15.7151C100.492 15.6513 100.5 15.5738 100.5 15.4851Z" fill="white"/>
<path id="Vector_18" d="M109.212 17.5101H108.061L108.001 16.5638H107.965C107.597 17.2838 106.971 17.6438 106.092 17.6438C105.389 17.6438 104.804 17.3651 104.34 16.8076C103.876 16.2501 103.645 15.5263 103.645 14.6376C103.645 13.6838 103.896 12.9113 104.401 12.3213C104.889 11.7713 105.488 11.4963 106.201 11.4963C106.984 11.4963 107.532 11.7626 107.844 12.2963H107.868V8.91382H109.166V15.9226C109.166 16.4963 109.181 17.0251 109.212 17.5101ZM107.868 15.0251V14.0426C107.868 13.8726 107.856 13.7351 107.832 13.6301C107.759 13.3151 107.602 13.0501 107.364 12.8363C107.122 12.6226 106.832 12.5151 106.496 12.5151C106.013 12.5151 105.634 12.7088 105.356 13.0976C105.08 13.4863 104.94 13.9826 104.94 14.5888C104.94 15.1713 105.073 15.6438 105.339 16.0076C105.619 16.3951 105.998 16.5888 106.472 16.5888C106.897 16.5888 107.237 16.4276 107.496 16.1038C107.746 15.8051 107.868 15.4451 107.868 15.0251Z" fill="white"/>
<path id="Vector_19" d="M120.299 14.5151C120.299 15.4213 120.043 16.1638 119.531 16.7463C118.994 17.3451 118.284 17.6438 117.395 17.6438C116.54 17.6438 115.858 17.3576 115.349 16.7826C114.841 16.2088 114.588 15.4851 114.588 14.6126C114.588 13.7001 114.849 12.9513 115.373 12.3701C115.898 11.7888 116.603 11.4976 117.492 11.4976C118.347 11.4976 119.036 11.7838 119.556 12.3576C120.051 12.9151 120.299 13.6351 120.299 14.5151ZM118.956 14.5576C118.956 14.0138 118.84 13.5476 118.608 13.1588C118.335 12.6888 117.949 12.4538 117.444 12.4538C116.925 12.4538 116.529 12.6888 116.255 13.1588C116.023 13.5476 115.908 14.0213 115.908 14.5813C115.908 15.1251 116.024 15.5913 116.255 15.9801C116.536 16.4501 116.927 16.6851 117.432 16.6851C117.927 16.6851 118.316 16.4463 118.596 15.9676C118.835 15.5713 118.956 15.1013 118.956 14.5576Z" fill="white"/>
<path id="Vector_20" d="M127.27 17.5101H125.975V14.1351C125.975 13.0951 125.584 12.5751 124.798 12.5751C124.414 12.5751 124.103 12.7176 123.863 13.0039C123.623 13.2901 123.503 13.6276 123.503 14.0139V17.5089H122.205V13.3014C122.205 12.7839 122.191 12.2226 122.16 11.6151H123.298L123.358 12.5364H123.394C123.546 12.2501 123.772 12.0139 124.066 11.8251C124.418 11.6051 124.811 11.4939 125.242 11.4939C125.785 11.4939 126.238 11.6714 126.598 12.0276C127.047 12.4639 127.27 13.1151 127.27 13.9801V17.5101Z" fill="white"/>
<path id="Vector_21" d="M135.995 12.5989H134.567V15.4614C134.567 16.1889 134.821 16.5526 135.323 16.5526C135.556 16.5526 135.749 16.5326 135.901 16.4914L135.934 17.4851C135.678 17.5826 135.342 17.6314 134.927 17.6314C134.415 17.6314 134.017 17.4739 133.729 17.1589C133.439 16.8439 133.296 16.3139 133.296 15.5701V12.5989H132.443V11.6176H133.296V10.5376L134.566 10.1501V11.6164H135.994V12.5989H135.995Z" fill="white"/>
<path id="Vector_22" d="M142.858 17.5101H141.56V14.1601C141.56 13.1038 141.169 12.5751 140.386 12.5751C139.785 12.5751 139.374 12.8813 139.149 13.4938C139.111 13.6226 139.089 13.7801 139.089 13.9651V17.5088H137.793V8.91382H139.089V12.4651H139.113C139.522 11.8188 140.107 11.4963 140.865 11.4963C141.402 11.4963 141.846 11.6738 142.199 12.0301C142.638 12.4738 142.858 13.1338 142.858 14.0063V17.5101Z" fill="white"/>
<path id="Vector_23" d="M149.937 14.2851C149.937 14.5201 149.92 14.7176 149.889 14.8788H146.001C146.018 15.4613 146.204 15.9051 146.564 16.2126C146.893 16.4876 147.317 16.6251 147.837 16.6251C148.412 16.6251 148.937 16.5326 149.409 16.3463L149.612 17.2563C149.059 17.4988 148.408 17.6201 147.655 17.6201C146.752 17.6201 146.041 17.3513 145.526 16.8138C145.009 16.2763 144.753 15.5551 144.753 14.6501C144.753 13.7613 144.992 13.0213 145.473 12.4313C145.975 11.8013 146.654 11.4863 147.512 11.4863C148.35 11.4863 148.987 11.8013 149.418 12.4313C149.765 12.9313 149.937 13.5501 149.937 14.2851ZM148.7 13.9463C148.71 13.5576 148.625 13.2226 148.449 12.9401C148.224 12.5763 147.881 12.3938 147.418 12.3938C146.994 12.3938 146.649 12.5713 146.386 12.9276C146.171 13.2113 146.043 13.5501 146.001 13.9463H148.7Z" fill="white"/>
</g>
</g>
</g>
</svg>
