<svg width="56" height="57" viewBox="0 0 56 57" fill="none" xmlns="http://www.w3.org/2000/svg">
<rect y="0.71875" width="56" height="56" rx="12" fill="black"/>
<path d="M34.6201 27.482C34.6321 26.5621 34.8792 25.6601 35.3385 24.86C35.7978 24.0599 36.4543 23.3877 37.2469 22.9059C36.7434 22.1948 36.0791 21.6097 35.3068 21.1968C34.5346 20.784 33.6756 20.555 32.7981 20.5278C30.9263 20.3336 29.1117 21.6353 28.1578 21.6353C27.1855 21.6353 25.7169 20.5471 24.1355 20.5793C23.1126 20.612 22.1157 20.9061 21.2419 21.4329C20.3682 21.9598 19.6473 22.7015 19.1497 23.5858C16.9939 27.2762 18.6019 32.6998 20.667 35.6828C21.7002 37.1436 22.9077 38.7752 24.4877 38.7173C26.0338 38.6539 26.6112 37.7425 28.4775 37.7425C30.3265 37.7425 30.8683 38.7173 32.4803 38.6806C34.1394 38.6539 35.1847 37.2134 36.1816 35.7388C36.9239 34.698 37.4952 33.5477 37.8741 32.3305C36.9103 31.9274 36.0877 31.2527 35.5091 30.3905C34.9304 29.5283 34.6213 28.5167 34.6201 27.482Z" fill="white"/>
<path d="M31.5769 18.5659C32.4814 17.4922 32.9271 16.1121 32.8192 14.7188C31.4372 14.8623 30.1606 15.5153 29.2438 16.5479C28.7955 17.0523 28.4522 17.6391 28.2335 18.2748C28.0147 18.9104 27.9248 19.5825 27.9689 20.2526C28.6602 20.2596 29.344 20.1115 29.969 19.8193C30.5939 19.5271 31.1437 19.0986 31.5769 18.5659Z" fill="white"/>
</svg>
