<svg width="56" height="57" viewBox="0 0 56 57" fill="none" xmlns="http://www.w3.org/2000/svg">
<g id="Icon">
<rect y="0.71875" width="56" height="56" rx="12" fill="black"/>
<path id="Icon_2" d="M44.8002 39.8146H41.7457V19.201C41.7457 19.05 41.7009 18.9023 41.617 18.7767C41.5331 18.6512 41.4138 18.5533 41.2742 18.4955C41.1347 18.4377 40.9812 18.4226 40.833 18.452C40.6849 18.4815 40.5488 18.5542 40.442 18.661L23.0637 36.0394C22.7091 36.3939 22.2882 36.6752 21.825 36.8671C21.3617 37.059 20.8652 37.1577 20.3638 37.1577C19.8624 37.1577 19.3659 37.059 18.9026 36.8671C18.4394 36.6752 18.0185 36.3939 17.6639 36.0394L15.5583 33.9338C15.4515 33.827 15.3155 33.7543 15.1673 33.7248C15.0192 33.6953 14.8656 33.7105 14.7261 33.7683C14.5866 33.8261 14.4673 33.9239 14.3834 34.0495C14.2995 34.1751 14.2547 34.3227 14.2547 34.4738V39.8146H11.2002V34.4738C11.2002 33.7186 11.4241 32.9804 11.8437 32.3525C12.2632 31.7246 12.8595 31.2352 13.5572 30.9462C14.2549 30.6572 15.0226 30.5816 15.7632 30.7289C16.5039 30.8763 17.1842 31.2399 17.7182 31.7739L19.8238 33.8795C19.8947 33.9504 19.9789 34.0067 20.0715 34.045C20.1642 34.0834 20.2635 34.1032 20.3638 34.1032C20.464 34.1032 20.5633 34.0834 20.656 34.0451C20.7486 34.0067 20.8328 33.9504 20.9037 33.8795L38.2821 16.5012C38.8161 15.9672 39.4964 15.6035 40.2371 15.4562C40.9778 15.3089 41.7455 15.3845 42.4432 15.6735C43.1408 15.9624 43.7372 16.4518 44.1567 17.0797C44.5763 17.7076 44.8002 18.4458 44.8002 19.201V39.8146Z" fill="white"/>
</g>
</svg>
