<svg width="980" height="548" viewBox="0 0 980 548" fill="none" xmlns="http://www.w3.org/2000/svg">
<path opacity="0.5" d="M503.636 513.6L499.825 513.174L497.027 515.796L497.453 511.985L494.832 509.187L498.642 509.613L501.44 506.992L501.014 510.802L503.636 513.6Z" fill="black"/>
<path opacity="0.5" d="M28.2237 269.145L31.5632 271.03L32.2978 274.794L34.1824 271.454L37.9458 270.72L34.6064 268.835L33.8718 265.071L31.9872 268.411L28.2237 269.145Z" fill="black"/>
<path opacity="0.5" d="M67.5016 359.311L70.841 361.195L71.5756 364.959L73.4602 361.619L77.2237 360.885L73.8843 359L73.1496 355.237L71.265 358.576L67.5016 359.311Z" fill="black"/>
<path opacity="0.5" d="M299.49 386.893L302.829 388.778L303.564 392.541L305.448 389.202L309.212 388.467L305.873 386.582L305.138 382.819L303.253 386.158L299.49 386.893Z" fill="black"/>
<path opacity="0.5" d="M494.144 219.866L497.483 221.751L498.218 225.514L500.102 222.175L503.866 221.44L500.526 219.556L499.792 215.792L497.907 219.132L494.144 219.866Z" fill="black"/>
<path opacity="0.5" d="M509.946 362.065L513.286 363.95L514.02 367.713L515.905 364.374L519.668 363.639L516.329 361.754L515.594 357.991L513.71 361.33L509.946 362.065Z" fill="black"/>
<path opacity="0.5" d="M429.401 311.112L432.741 312.996L433.476 316.76L435.36 313.421L439.124 312.686L435.784 310.801L435.05 307.038L433.165 310.377L429.401 311.112Z" fill="black"/>
<path opacity="0.5" d="M311.439 257.094L314.778 258.979L315.513 262.743L317.397 259.403L321.161 258.668L317.821 256.784L317.087 253.02L315.202 256.36L311.439 257.094Z" fill="black"/>
<path opacity="0.5" d="M221.669 218.292L225.008 220.176L225.743 223.94L227.627 220.6L231.391 219.866L228.051 217.981L227.317 214.218L225.432 217.557L221.669 218.292Z" fill="black"/>
<path d="M163.362 311.412L168.346 314.225L169.443 319.842L172.256 314.858L177.873 313.762L172.889 310.949L171.792 305.331L168.979 310.316L163.362 311.412Z" fill="black"/>
<path d="M163.362 377.288L168.347 380.101L169.443 385.718L172.256 380.734L177.874 379.637L172.889 376.824L171.793 371.207L168.98 376.191L163.362 377.288Z" fill="black"/>
<path opacity="0.1" d="M404.637 347.51L409.622 350.323L410.718 355.94L413.531 350.956L419.148 349.859L414.164 347.046L413.068 341.429L410.255 346.413L404.637 347.51Z" fill="black"/>
<path d="M435.578 402.367L440.563 405.18L441.659 410.798L444.472 405.813L450.089 404.717L445.105 401.904L444.009 396.287L441.196 401.271L435.578 402.367Z" fill="black"/>
<path opacity="0.1" d="M352.477 487.88L346.789 487.244L342.613 491.157L343.249 485.469L339.335 481.293L345.023 481.929L349.2 478.015L348.564 483.703L352.477 487.88Z" fill="black"/>
<path d="M605.862 160.559L610.847 163.372L611.943 168.989L614.756 164.005L620.374 162.908L615.389 160.095L614.293 154.478L611.48 159.463L605.862 160.559Z" fill="black"/>
<path opacity="0.5" d="M905.351 475.241L902.273 473.948L899.291 475.45L900.584 472.372L899.082 469.39L902.16 470.683L905.143 469.181L903.849 472.259L905.351 475.241Z" fill="black"/>
<path opacity="0.5" d="M976.197 523.771L973.119 522.478L970.136 523.98L971.43 520.901L969.928 517.919L973.006 519.212L975.988 517.71L974.695 520.789L976.197 523.771Z" fill="black"/>
<path opacity="0.5" d="M893.186 544.835L890.108 543.542L887.126 545.044L888.419 541.966L886.917 538.983L889.995 540.276L892.978 538.775L891.684 541.853L893.186 544.835Z" fill="black"/>
<path opacity="0.5" d="M750.45 399.876L747.372 398.583L744.389 400.085L745.682 397.007L744.18 394.024L747.259 395.317L750.241 393.816L748.948 396.894L750.45 399.876Z" fill="black"/>
<path opacity="0.5" d="M761.574 176.801L758.496 175.508L755.513 177.01L756.806 173.931L755.305 170.949L758.383 172.242L761.365 170.74L760.072 173.819L761.574 176.801Z" fill="black"/>
<path opacity="0.5" d="M655.272 241.779L652.194 240.485L649.212 241.987L650.505 238.909L649.003 235.927L652.081 237.22L655.063 235.718L653.77 238.796L655.272 241.779Z" fill="black"/>
<path opacity="0.5" d="M733.308 270.035L730.23 268.742L727.248 270.244L728.541 267.166L727.039 264.184L730.117 265.477L733.1 263.975L731.806 267.053L733.308 270.035Z" fill="black"/>
<path opacity="0.5" d="M833.413 322.412L830.334 321.119L827.352 322.621L828.645 319.543L827.143 316.56L830.222 317.854L833.204 316.352L831.911 319.43L833.413 322.412Z" fill="black"/>
<path opacity="0.5" d="M849.044 423.813L845.965 422.52L842.983 424.022L844.276 420.943L842.774 417.961L845.853 419.254L848.835 417.752L847.542 420.831L849.044 423.813Z" fill="black"/>
<path opacity="0.5" d="M851.799 503.815L848.72 502.522L845.738 504.024L847.031 500.945L845.529 497.963L848.608 499.256L851.59 497.754L850.297 500.833L851.799 503.815Z" fill="black"/>
<path opacity="0.1" d="M817.808 408.151L813.213 406.221L808.761 408.463L810.692 403.868L808.45 399.416L813.045 401.347L817.496 399.105L815.566 403.7L817.808 408.151Z" fill="black"/>
<path d="M829.678 488.445L825.083 486.515L820.632 488.757L822.562 484.162L820.32 479.71L824.915 481.64L829.366 479.399L827.436 483.994L829.678 488.445Z" fill="black"/>
<path d="M557.918 288.993L553.323 287.063L548.872 289.305L550.802 284.71L548.561 280.259L553.155 282.189L557.607 279.947L555.677 284.542L557.918 288.993Z" fill="black"/>
<path opacity="0.1" d="M667.203 314.463L662.608 312.533L658.157 314.775L660.087 310.18L657.845 305.729L662.44 307.659L666.891 305.417L664.961 310.012L667.203 314.463Z" fill="black"/>
<path d="M785.405 416.579L780.81 414.648L776.359 416.89L778.289 412.295L776.047 407.844L780.642 409.774L785.094 407.532L783.163 412.127L785.405 416.579Z" fill="black"/>
<path opacity="0.1" d="M685.295 13.7434L680.7 11.8133L676.249 14.0551L678.179 9.46014L675.937 5.00893L680.532 6.93906L684.984 4.69722L683.054 9.29219L685.295 13.7434Z" fill="black"/>
</svg>
