<svg width="476" height="470" viewBox="0 0 476 470" fill="none" xmlns="http://www.w3.org/2000/svg">
<path opacity="0.5" d="M397 99.7188L398.347 103.372L402 104.719L398.347 106.066L397 109.719L395.653 106.066L392 104.719L395.653 103.372L397 99.7188Z" fill="black"/>
<path opacity="0.5" d="M382 0.71875L383.347 4.37171L387 5.71875L383.347 7.06579L382 10.7188L380.653 7.06579L377 5.71875L380.653 4.37171L382 0.71875Z" fill="black"/>
<path opacity="0.5" d="M466 54.7188L467.347 58.3717L471 59.7188L467.347 61.0658L466 64.7188L464.653 61.0658L461 59.7188L464.653 58.3717L466 54.7188Z" fill="black"/>
<path opacity="0.5" d="M456 291.719L457.347 295.372L461 296.719L457.347 298.066L456 301.719L454.653 298.066L451 296.719L454.653 295.372L456 291.719Z" fill="black"/>
<path opacity="0.5" d="M257 459.719L258.347 463.372L262 464.719L258.347 466.066L257 469.719L255.653 466.066L252 464.719L255.653 463.372L257 459.719Z" fill="black"/>
<path opacity="0.5" d="M78 388.719L79.347 392.372L83 393.719L79.347 395.066L78 398.719L76.653 395.066L73 393.719L76.653 392.372L78 388.719Z" fill="black"/>
<path opacity="0.5" d="M40 299.719L41.347 303.372L45 304.719L41.347 306.066L40 309.719L38.653 306.066L35 304.719L38.653 303.372L40 299.719Z" fill="black"/>
<path opacity="0.5" d="M5 172.719L6.34704 176.372L10 177.719L6.34704 179.066L5 182.719L3.65296 179.066L0 177.719L3.65296 176.372L5 172.719Z" fill="black"/>
<path opacity="0.5" d="M79 78.7188L80.347 82.3717L84 83.7188L80.347 85.0658L79 88.7188L77.653 85.0658L74 83.7188L77.653 82.3717L79 78.7188Z" fill="black"/>
<path opacity="0.5" d="M145 12.7188L146.347 16.3717L150 17.7188L146.347 19.0658L145 22.7188L143.653 19.0658L140 17.7188L143.653 16.3717L145 12.7188Z" fill="black"/>
<path d="M409.463 227.719L411.474 233.171L416.926 235.182L411.474 237.192L409.463 242.645L407.452 237.192L402 235.182L407.452 233.171L409.463 227.719Z" fill="black"/>
<path d="M468.463 153.719L470.474 159.171L475.926 161.182L470.474 163.192L468.463 168.645L466.452 163.192L461 161.182L466.452 159.171L468.463 153.719Z" fill="black"/>
<path d="M399.463 390.719L401.474 396.171L406.926 398.182L401.474 400.192L399.463 405.645L397.452 400.192L392 398.182L397.452 396.171L399.463 390.719Z" fill="black"/>
<path d="M130.463 320.719L132.474 326.171L137.926 328.182L132.474 330.192L130.463 335.645L128.452 330.192L123 328.182L128.452 326.171L130.463 320.719Z" fill="black"/>
<path d="M123.463 138.719L125.474 144.171L130.926 146.182L125.474 148.192L123.463 153.645L121.452 148.192L116 146.182L121.452 144.171L123.463 138.719Z" fill="black"/>
<path d="M70.463 236.719L72.4735 242.171L77.9259 244.182L72.4735 246.192L70.463 251.645L68.4524 246.192L63 244.182L68.4524 242.171L70.463 236.719Z" fill="black"/>
</svg>
