<svg width="33" height="33" viewBox="0 0 33 33" fill="none" xmlns="http://www.w3.org/2000/svg">
<g id="twitter">
<rect id="Rectangle 1" x="0.5" y="0.71875" width="32" height="32" rx="16" fill="#141414"/>
<path id="Vector" d="M24.9808 12.6386C24.4208 12.8786 23.7808 13.0387 23.1408 13.1187C23.7808 12.7187 24.3408 12.0787 24.5808 11.3587C23.9408 11.7587 23.3008 11.9987 22.5008 12.1587C21.9408 11.5187 21.0608 11.1187 20.1808 11.1187C18.4208 11.1187 16.9808 12.5587 16.9808 14.3187C16.9808 14.5587 16.9808 14.7986 17.0608 15.0386C14.4208 14.8786 12.0208 13.5986 10.4208 11.6786C10.1808 12.1586 10.0208 12.7186 10.0208 13.2787C10.0208 14.3986 10.5808 15.3587 11.4608 15.9187C10.9008 15.9187 10.4208 15.7587 10.0208 15.5187C10.0208 17.0387 11.1408 18.3986 12.5808 18.6386C12.3408 18.7186 12.0208 18.7187 11.7008 18.7187C11.4608 18.7187 11.3008 18.7186 11.0608 18.6386C11.4608 19.9186 12.6608 20.8786 14.1008 20.8786C12.9808 21.7586 11.6208 22.2386 10.1008 22.2386C9.86078 22.2386 9.62078 22.2387 9.30078 22.1587C10.7408 23.0387 12.4208 23.5987 14.2608 23.5987C20.1808 23.5987 23.3808 18.7187 23.3808 14.4786V14.0786C24.0208 13.8386 24.5808 13.2786 24.9808 12.6386Z" fill="#A0A0A0"/>
</g>
</svg>
