<svg width="50" height="51" viewBox="0 0 50 51" fill="none" xmlns="http://www.w3.org/2000/svg">
<rect y="0.71875" width="50" height="50" rx="25" fill="#E7E7E7"/>
<path d="M38.25 19.3437C37.375 19.7187 36.375 19.9688 35.375 20.0938C36.375 19.4688 37.25 18.4688 37.625 17.3438C36.625 17.9688 35.625 18.3438 34.375 18.5938C33.5 17.5938 32.125 16.9688 30.75 16.9688C28 16.9688 25.75 19.2188 25.75 21.9688C25.75 22.3438 25.75 22.7187 25.875 23.0937C21.75 22.8437 18 20.8437 15.5 17.8437C15.125 18.5937 14.875 19.4687 14.875 20.3437C14.875 22.0937 15.75 23.5938 17.125 24.4688C16.25 24.4688 15.5 24.2188 14.875 23.8438C14.875 26.2188 16.625 28.3437 18.875 28.7187C18.5 28.8437 18 28.8438 17.5 28.8438C17.125 28.8438 16.875 28.8437 16.5 28.7187C17.125 30.7187 19 32.2187 21.25 32.2187C19.5 33.5937 17.375 34.3437 15 34.3437C14.625 34.3437 14.25 34.3438 13.75 34.2188C16 35.5938 18.625 36.4688 21.5 36.4688C30.75 36.4688 35.75 28.8437 35.75 22.2187V21.5937C36.75 21.2187 37.625 20.3437 38.25 19.3437Z" fill="#787878"/>
</svg>
