<svg width="25" height="25" viewBox="0 0 25 25" fill="none" xmlns="http://www.w3.org/2000/svg">
<path d="M12.2993 1.69629C10.1237 1.69629 7.99699 2.34143 6.18805 3.55012C4.37911 4.75882 2.96921 6.47678 2.13665 8.48677C1.30408 10.4968 1.08625 12.7085 1.51068 14.8423C1.93512 16.9761 2.98277 18.9361 4.52115 20.4745C6.05952 22.0128 8.01954 23.0605 10.1533 23.4849C12.2871 23.9094 14.4989 23.6915 16.5088 22.859C18.5188 22.0264 20.2368 20.6165 21.4455 18.8076C22.6542 16.9986 23.2993 14.8719 23.2993 12.6963C23.2959 9.77996 22.1359 6.98407 20.0737 4.92191C18.0115 2.85976 15.2156 1.69973 12.2993 1.69629ZM12.2993 21.6963C10.5193 21.6963 8.77923 21.1684 7.29919 20.1795C5.81915 19.1906 4.66559 17.785 3.98441 16.1404C3.30322 14.4959 3.12499 12.6863 3.47225 10.9405C3.81952 9.19465 4.67669 7.591 5.93536 6.33233C7.19403 5.07365 8.79768 4.21649 10.5435 3.86922C12.2893 3.52195 14.0989 3.70018 15.7435 4.38137C17.388 5.06256 18.7936 6.21611 19.7825 7.69616C20.7715 9.1762 21.2993 10.9163 21.2993 12.6963C21.2967 15.0824 20.3476 17.3701 18.6604 19.0573C16.9731 20.7446 14.6855 21.6936 12.2993 21.6963Z" fill="black"/>
<path d="M12.2993 21.6963C10.5193 21.6963 8.77923 21.1684 7.29919 20.1795C5.81915 19.1906 4.66559 17.785 3.98441 16.1404C3.30322 14.4959 3.12499 12.6863 3.47225 10.9405C3.81952 9.19465 4.67669 7.591 5.93536 6.33233C7.19403 5.07365 8.79768 4.21649 10.5435 3.86922C12.2893 3.52195 14.0989 3.70018 15.7435 4.38137C17.388 5.06256 18.7936 6.21611 19.7825 7.69616C20.7715 9.1762 21.2993 10.9163 21.2993 12.6963C21.2967 15.0824 20.3476 17.3701 18.6604 19.0573C16.9731 20.7446 14.6855 21.6936 12.2993 21.6963Z" fill="black"/>
<path d="M16.6258 9.45936L11.3318 14.3124L9.00884 11.9894C8.91659 11.8939 8.80625 11.8177 8.68424 11.7653C8.56224 11.7129 8.43102 11.6853 8.29824 11.6841C8.16546 11.683 8.03378 11.7083 7.91088 11.7585C7.78799 11.8088 7.67634 11.8831 7.58244 11.977C7.48855 12.0709 7.4143 12.1825 7.36402 12.3054C7.31374 12.4283 7.28843 12.56 7.28959 12.6928C7.29074 12.8255 7.31833 12.9568 7.37074 13.0788C7.42315 13.2008 7.49933 13.3111 7.59484 13.4034L10.5948 16.4034C10.7771 16.5856 11.0226 16.6905 11.2803 16.6961C11.538 16.7017 11.7879 16.6076 11.9778 16.4334L17.9778 10.9334C18.1733 10.7541 18.2895 10.5045 18.301 10.2395C18.3124 9.97451 18.2181 9.71583 18.0388 9.52036C17.8596 9.3249 17.61 9.20866 17.345 9.19722C17.08 9.18578 16.8213 9.28008 16.6258 9.45936Z" fill="white"/>
</svg>
