<svg width="81" height="80" viewBox="0 0 81 80" fill="none" xmlns="http://www.w3.org/2000/svg">
<path d="M47.0138 2.61332C51.869 3.46941 56.508 5.27343 60.666 7.92236C64.824 10.5713 68.4196 14.0133 71.2473 18.0517C74.0751 22.0902 76.0798 26.6461 77.1469 31.4594C78.2139 36.2726 78.3225 41.2488 77.4664 46.104C76.6103 50.9592 74.8063 55.5982 72.1573 59.7562C69.5084 63.9142 66.0664 67.5097 62.0279 70.3375C57.9894 73.1653 53.4335 75.1699 48.6203 76.237C43.807 77.304 38.8308 77.4126 33.9756 76.5565C29.1204 75.7004 24.4813 73.8964 20.3233 71.2475C16.1654 68.5985 12.5698 65.1566 9.74203 61.1181C6.91425 57.0796 4.90959 52.5237 3.84253 47.7105C2.77546 42.8972 2.66688 37.921 3.52299 33.0658C4.37909 28.2106 6.18311 23.5716 8.83205 19.4136C11.481 15.2556 14.923 11.6601 18.9615 8.83234C23 6.00457 27.5559 3.99992 32.3691 2.93286C37.1824 1.8658 42.1586 1.75722 47.0138 2.61332L47.0138 2.61332Z" stroke="#F2F2F2" stroke-width="4"/>
<path d="M62.7193 69.8705C63.3653 70.7508 63.1778 71.9927 62.2663 72.5939C55.5285 77.038 47.5763 79.3228 39.476 79.114C30.7156 78.8882 22.2783 75.7586 15.4896 70.2169C8.70095 64.6752 3.94551 57.0353 1.97034 48.4975C-0.00482595 39.9596 0.912182 31.0075 4.57732 23.0474C8.24246 15.0873 14.448 8.57024 22.2193 4.51997C29.9905 0.469695 38.8871 -0.884294 47.5114 0.670695C56.1357 2.22568 63.9991 6.60154 69.8664 13.1109C75.2915 19.1297 78.7258 26.6571 79.7298 34.6658C79.8656 35.7493 79.0439 36.6992 77.9551 36.7807C76.8662 36.8622 75.923 36.0444 75.7812 34.9617C74.8465 27.8271 71.7676 21.1261 66.9293 15.7583C61.6487 9.89991 54.5716 5.96163 46.8097 4.56214C39.0478 3.16265 31.041 4.38124 24.0468 8.02649C17.0527 11.6717 11.4677 17.5371 8.16908 24.7012C4.87046 31.8653 4.04515 39.9222 5.82281 47.6063C7.60046 55.2903 11.8803 62.1662 17.9902 67.1537C24.1 72.1413 31.6935 74.9579 39.5779 75.1611C46.802 75.3473 53.8953 73.3299 59.9238 69.4014C60.8386 68.8053 62.0732 68.9901 62.7193 69.8705Z" fill="black"/>
</svg>
