<svg width="65" height="65" viewBox="0 0 65 65" fill="none" xmlns="http://www.w3.org/2000/svg">
<rect x="0.880859" y="1.21875" width="63" height="63" rx="31.5" stroke="black"/>
<path d="M43.818 26.2953L37.7008 25.4064L34.9651 19.8633C33.9088 17.7228 30.8534 17.722 29.7967 19.8633L27.0609 25.4064L20.9437 26.2953C18.5816 26.6385 17.6368 29.544 19.3466 31.2107L23.7731 35.5255L22.7282 41.6179C22.3246 43.9703 24.7957 45.7668 26.9095 44.6559L32.3809 41.7793L37.8523 44.6559C39.9686 45.7683 42.4362 43.965 42.0335 41.6179L40.9885 35.5255L45.4151 31.2107C47.1242 29.5445 46.181 26.6387 43.818 26.2953ZM23.6048 18.8761L22.1277 16.8431C21.7267 16.2914 20.9543 16.169 20.4026 16.57C19.8508 16.9709 19.7285 17.7433 20.1294 18.2951L21.6065 20.3281C22.0077 20.8801 22.7802 21.0021 23.3316 20.6012C23.8834 20.2004 24.0058 19.4279 23.6048 18.8761ZM18.703 37.0952C18.4922 36.4466 17.7956 36.0913 17.1468 36.3023L14.7083 37.0946C14.0596 37.3053 13.7046 38.0021 13.9154 38.6509C14.1265 39.3009 14.8246 39.6544 15.4717 39.4439L17.9102 38.6515C18.5589 38.4408 18.9139 37.744 18.703 37.0952ZM44.3592 16.57C43.8074 16.169 43.035 16.2913 42.6341 16.8431L41.1569 18.8761C40.756 19.4279 40.8783 20.2004 41.4301 20.6012C41.9822 21.0023 42.7544 20.8797 43.1553 20.3281L44.6324 18.2951C45.0334 17.7433 44.911 16.9709 44.3592 16.57ZM50.0535 37.0946L47.6149 36.3023C46.9662 36.0911 46.2695 36.4465 46.0587 37.0952C45.8479 37.7439 46.2028 38.4407 46.8516 38.6515L49.2901 39.4439C49.9375 39.6545 50.6353 39.3005 50.8464 38.6509C51.0571 38.0022 50.7022 37.3055 50.0535 37.0946ZM32.3809 46.6694C31.6988 46.6694 31.1458 47.2224 31.1458 47.9044V50.4111C31.1458 51.0932 31.6988 51.6462 32.3809 51.6462C33.0629 51.6462 33.6159 51.0932 33.6159 50.4111V47.9044C33.616 47.2224 33.063 46.6694 32.3809 46.6694Z" fill="black"/>
</svg>
