<svg width="65" height="65" viewBox="0 0 65 65" fill="none" xmlns="http://www.w3.org/2000/svg">
<rect x="1.22296" y="1.56086" width="62.3158" height="62.3158" rx="31.1579" stroke="black" stroke-width="1.68421"/>
<path d="M39.5453 25.1409C37.7274 23.323 35.161 22.1468 32.3807 22.1468C29.6004 22.1468 27.034 23.2696 25.2161 25.1409C23.3982 26.9588 22.222 29.5252 22.222 32.3055C22.222 35.0858 23.3982 37.6522 25.2161 39.4701C27.034 41.288 29.6004 42.4642 32.3807 42.4642C35.161 42.4642 37.7274 41.3414 39.5453 39.4701C41.3631 37.6522 42.5394 35.0858 42.5394 32.3055C42.5394 29.5252 41.4166 26.9588 39.5453 25.1409ZM32.3807 18.9922C33.1292 18.9922 33.7708 18.3506 33.7708 17.6021V13.4851C33.7708 12.7366 33.1292 12.095 32.3807 12.095C31.6322 12.095 30.9906 12.7366 30.9906 13.4851V17.6021C30.9906 18.3506 31.6322 18.9922 32.3807 18.9922ZM43.7692 22.8953L46.7098 19.9546C47.2445 19.4199 47.2445 18.5645 46.7098 18.0298C46.1752 17.4951 45.3197 17.4951 44.785 18.0298L41.8444 20.9705C41.3097 21.5052 41.3097 22.3606 41.8444 22.8953C42.3256 23.43 43.181 23.43 43.7692 22.8953ZM51.2011 30.9154H47.0841C46.3356 30.9154 45.694 31.557 45.694 32.3055C45.694 33.054 46.3356 33.6956 47.0841 33.6956H51.2011C51.9496 33.6956 52.5912 33.054 52.5912 32.3055C52.5912 31.557 51.9496 30.9154 51.2011 30.9154ZM43.7157 41.7157C43.181 41.181 42.3256 41.181 41.7909 41.7157C41.2562 42.2504 41.2562 43.1058 41.7909 43.6405L44.7316 46.5812C45.2662 47.1159 46.1217 47.1159 46.6564 46.5812C47.1911 46.0465 47.1911 45.191 46.6564 44.6564L43.7157 41.7157ZM32.3807 45.6188C31.6322 45.6188 30.9906 46.2604 30.9906 47.0089V51.1259C30.9906 51.8744 31.6322 52.516 32.3807 52.516C33.1292 52.516 33.7708 51.8744 33.7708 51.1259V47.0089C33.7708 46.2604 33.1292 45.6188 32.3807 45.6188ZM20.9922 41.7157L18.0515 44.6564C17.5169 45.191 17.5169 46.0465 18.0515 46.5812C18.5862 47.1159 19.4417 47.1159 19.9763 46.5812L22.917 43.6405C23.4517 43.1058 23.4517 42.2504 22.917 41.7157C22.4358 41.181 21.5804 41.181 20.9922 41.7157ZM19.0674 32.3055C19.0674 31.557 18.4258 30.9154 17.6773 30.9154H13.5603C12.8118 30.9154 12.1702 31.557 12.1702 32.3055C12.1702 33.054 12.8118 33.6956 13.5603 33.6956H17.6773C18.4258 33.6956 19.0674 33.054 19.0674 32.3055ZM20.9922 22.8953C21.5269 23.43 22.3824 23.43 22.917 22.8953C23.4517 22.3606 23.4517 21.5052 22.917 20.9705L19.9763 18.0298C19.4417 17.4951 18.5862 17.4951 18.0515 18.0298C17.5169 18.5645 17.5169 19.4199 18.0515 19.9546L20.9922 22.8953Z" fill="black"/>
</svg>
