<svg width="64" height="65" viewBox="0 0 64 65" fill="none" xmlns="http://www.w3.org/2000/svg">
<rect x="0.5" y="0.71875" width="63" height="63" rx="31.5" stroke="black"/>
<path fill-rule="evenodd" clip-rule="evenodd" d="M28.3646 33.9359C28.6543 33.6619 28.8852 33.3317 29.0429 32.9654C29.2007 32.5992 29.2821 32.2046 29.2821 31.8058C29.2821 31.407 29.2007 31.0124 29.0429 30.6462C28.8852 30.2799 28.6543 29.9497 28.3646 29.6757L28.1965 29.517C25.0613 26.5234 22.6387 24.2128 21.9105 19.3691C21.6491 17.6622 23.1117 16.2463 24.873 16.2463H39.1099C40.8713 16.2463 42.3338 17.6622 42.0756 19.3691C41.3443 24.2128 38.9232 26.5234 35.788 29.517L35.6215 29.6757C35.3317 29.9497 35.1009 30.2799 34.9431 30.6462C34.7854 31.0124 34.704 31.407 34.704 31.8058C34.704 32.2046 34.7854 32.5992 34.9431 32.9654C35.1009 33.3317 35.3317 33.6619 35.6215 33.9359L35.788 34.0946C38.9232 37.0882 41.3458 39.3988 42.0756 44.2425C42.3338 45.9493 40.8713 47.3653 39.1099 47.3653H24.873C23.1117 47.3653 21.6491 45.9493 21.9074 44.2425C22.6387 39.3988 25.0597 37.0882 28.195 34.0946L28.3646 33.9359ZM29.4273 36.5779L29.4148 36.5872C27.0265 38.7235 25.248 40.3137 25.0162 44.2471C25.0093 44.3612 25.0294 44.4753 25.0748 44.5802C25.1202 44.6851 25.1897 44.7778 25.2776 44.8508C25.4168 44.9682 25.5933 45.0322 25.7755 45.0313H38.2106C38.4346 45.0313 38.6369 44.938 38.7754 44.7855C38.8424 44.7135 38.894 44.6287 38.9272 44.5361C38.9604 44.4436 38.9744 44.3453 38.9683 44.2471C38.7365 40.3137 36.9596 38.7235 34.5712 36.5872C33.9395 36.0224 33.2642 35.4187 32.5641 34.7232C32.4118 34.5728 32.2063 34.4884 31.9923 34.4884C31.7782 34.4884 31.5728 34.5728 31.4204 34.7232C30.7249 35.414 30.0543 36.0146 29.4273 36.5763V36.5779Z" fill="black"/>
</svg>
