<svg width="33" height="33" viewBox="0 0 33 33" fill="none" xmlns="http://www.w3.org/2000/svg">
<g id="instagramm">
<rect id="Rectangle 1" x="0.5" y="0.71875" width="32" height="32" rx="16" fill="#141414"/>
<g id="instagram">
<path d="M16.5 10.1645C18.6205 10.1645 18.9096 10.1645 19.7771 10.1645C20.5482 10.1645 20.9337 10.3573 21.2229 10.4537C21.6084 10.6465 21.8976 10.7428 22.1867 11.032C22.4759 11.3212 22.6687 11.6103 22.7651 11.9959C22.8614 12.285 22.9578 12.6706 23.0542 13.4416C23.0542 14.3091 23.0542 14.5019 23.0542 16.7188C23.0542 18.9356 23.0542 19.1284 23.0542 19.9959C23.0542 20.7669 22.8614 21.1525 22.7651 21.4416C22.5723 21.8272 22.4759 22.1163 22.1867 22.4055C21.8976 22.6947 21.6084 22.8874 21.2229 22.9838C20.9337 23.0802 20.5482 23.1766 19.7771 23.273C18.9096 23.273 18.7169 23.273 16.5 23.273C14.2831 23.273 14.0904 23.273 13.2229 23.273C12.4518 23.273 12.0663 23.0802 11.7771 22.9838C11.3916 22.791 11.1024 22.6947 10.8133 22.4055C10.5241 22.1163 10.3313 21.8272 10.2349 21.4416C10.1386 21.1525 10.0422 20.7669 9.94578 19.9959C9.94578 19.1284 9.94578 18.9356 9.94578 16.7188C9.94578 14.5019 9.94578 14.3091 9.94578 13.4416C9.94578 12.6706 10.1386 12.285 10.2349 11.9959C10.4277 11.6103 10.5241 11.3212 10.8133 11.032C11.1024 10.7428 11.3916 10.5501 11.7771 10.4537C12.0663 10.3573 12.4518 10.2609 13.2229 10.1645C14.0904 10.1645 14.3795 10.1645 16.5 10.1645ZM16.5 8.71875C14.2831 8.71875 14.0904 8.71875 13.2229 8.71875C12.3554 8.71875 11.7771 8.91152 11.2952 9.10429C10.8133 9.29706 10.3313 9.58622 9.8494 10.0681C9.36747 10.5501 9.1747 10.9356 8.88554 11.5139C8.69277 11.9959 8.59639 12.5742 8.5 13.4416C8.5 14.3091 8.5 14.5983 8.5 16.7188C8.5 18.9356 8.5 19.1284 8.5 19.9959C8.5 20.8633 8.69277 21.4416 8.88554 21.9236C9.07831 22.4055 9.36747 22.8874 9.8494 23.3694C10.3313 23.8513 10.7169 24.0441 11.2952 24.3332C11.7771 24.526 12.3554 24.6224 13.2229 24.7188C14.0904 24.7188 14.3795 24.7188 16.5 24.7188C18.6205 24.7188 18.9096 24.7188 19.7771 24.7188C20.6446 24.7188 21.2229 24.526 21.7048 24.3332C22.1867 24.1404 22.6687 23.8513 23.1506 23.3694C23.6325 22.8874 23.8253 22.5019 24.1145 21.9236C24.3072 21.4416 24.4036 20.8633 24.5 19.9959C24.5 19.1284 24.5 18.8392 24.5 16.7188C24.5 14.5983 24.5 14.3091 24.5 13.4416C24.5 12.5742 24.3072 11.9959 24.1145 11.5139C23.9217 11.032 23.6325 10.5501 23.1506 10.0681C22.6687 9.58622 22.2831 9.39345 21.7048 9.10429C21.2229 8.91152 20.6446 8.81514 19.7771 8.71875C18.9096 8.71875 18.7169 8.71875 16.5 8.71875Z" fill="#A0A0A0"/>
<path d="M16.5 12.5742C14.1867 12.5742 12.3554 14.4055 12.3554 16.7188C12.3554 19.032 14.1867 20.8633 16.5 20.8633C18.8133 20.8633 20.6446 19.032 20.6446 16.7188C20.6446 14.4055 18.8133 12.5742 16.5 12.5742ZM16.5 19.4175C15.0542 19.4175 13.8012 18.2609 13.8012 16.7188C13.8012 15.273 14.9578 14.02 16.5 14.02C17.9458 14.02 19.1988 15.1766 19.1988 16.7188C19.1988 18.1645 17.9458 19.4175 16.5 19.4175Z" fill="#A0A0A0"/>
<path d="M20.741 13.4416C21.2733 13.4416 21.7048 13.0101 21.7048 12.4778C21.7048 11.9455 21.2733 11.5139 20.741 11.5139C20.2086 11.5139 19.7771 11.9455 19.7771 12.4778C19.7771 13.0101 20.2086 13.4416 20.741 13.4416Z" fill="#A0A0A0"/>
</g>
</g>
</svg>
