<svg width="50" height="51" viewBox="0 0 50 51" fill="none" xmlns="http://www.w3.org/2000/svg">
<rect y="0.71875" width="50" height="50" rx="25" fill="#E7E7E7"/>
<path d="M25 15.4778C28.3133 15.4778 28.7651 15.4778 30.1205 15.4778C31.3253 15.4778 31.9277 15.779 32.3795 15.9296C32.9819 16.2308 33.4337 16.3814 33.8855 16.8332C34.3374 17.285 34.6386 17.7368 34.7892 18.3392C34.9398 18.791 35.0904 19.3934 35.241 20.5983C35.241 21.9537 35.241 22.2549 35.241 25.7188C35.241 29.1826 35.241 29.4838 35.241 30.8392C35.241 32.0441 34.9398 32.6465 34.7892 33.0983C34.488 33.7007 34.3374 34.1525 33.8855 34.6043C33.4337 35.0561 32.9819 35.3573 32.3795 35.5079C31.9277 35.6585 31.3253 35.8091 30.1205 35.9597C28.7651 35.9597 28.4639 35.9597 25 35.9597C21.5361 35.9597 21.2349 35.9597 19.8795 35.9597C18.6747 35.9597 18.0723 35.6585 17.6205 35.5079C17.0181 35.2067 16.5663 35.0561 16.1145 34.6043C15.6627 34.1525 15.3614 33.7007 15.2108 33.0983C15.0602 32.6465 14.9096 32.0441 14.759 30.8392C14.759 29.4838 14.759 29.1826 14.759 25.7188C14.759 22.2549 14.759 21.9537 14.759 20.5983C14.759 19.3934 15.0602 18.791 15.2108 18.3392C15.512 17.7368 15.6627 17.285 16.1145 16.8332C16.5663 16.3814 17.0181 16.0802 17.6205 15.9296C18.0723 15.779 18.6747 15.6284 19.8795 15.4778C21.2349 15.4778 21.6867 15.4778 25 15.4778ZM25 13.2188C21.5361 13.2188 21.2349 13.2188 19.8795 13.2188C18.5241 13.2188 17.6205 13.52 16.8675 13.8212C16.1145 14.1224 15.3614 14.5742 14.6084 15.3272C13.8554 16.0802 13.5542 16.6826 13.1024 17.5862C12.8012 18.3392 12.6506 19.2428 12.5 20.5983C12.5 21.9537 12.5 22.4055 12.5 25.7188C12.5 29.1826 12.5 29.4838 12.5 30.8392C12.5 32.1947 12.8012 33.0983 13.1024 33.8513C13.4036 34.6043 13.8554 35.3573 14.6084 36.1103C15.3614 36.8633 15.9639 37.1645 16.8675 37.6163C17.6205 37.9175 18.5241 38.0681 19.8795 38.2188C21.2349 38.2188 21.6867 38.2188 25 38.2188C28.3133 38.2188 28.7651 38.2188 30.1205 38.2188C31.4759 38.2188 32.3795 37.9175 33.1325 37.6163C33.8855 37.3151 34.6386 36.8633 35.3916 36.1103C36.1446 35.3573 36.4458 34.7549 36.8976 33.8513C37.1988 33.0983 37.3494 32.1947 37.5 30.8392C37.5 29.4838 37.5 29.032 37.5 25.7188C37.5 22.4055 37.5 21.9537 37.5 20.5983C37.5 19.2428 37.1988 18.3392 36.8976 17.5862C36.5964 16.8332 36.1446 16.0802 35.3916 15.3272C34.6386 14.5742 34.0361 14.273 33.1325 13.8212C32.3795 13.52 31.4759 13.3694 30.1205 13.2188C28.7651 13.2188 28.4639 13.2188 25 13.2188Z" fill="#787878"/>
<path d="M25 19.2428C21.3855 19.2428 18.5241 22.1043 18.5241 25.7188C18.5241 29.3332 21.3855 32.1947 25 32.1947C28.6145 32.1947 31.4759 29.3332 31.4759 25.7188C31.4759 22.1043 28.6145 19.2428 25 19.2428ZM25 29.9356C22.741 29.9356 20.7831 28.1284 20.7831 25.7188C20.7831 23.4597 22.5904 21.5019 25 21.5019C27.259 21.5019 29.2169 23.3091 29.2169 25.7188C29.2169 27.9778 27.259 29.9356 25 29.9356Z" fill="#787878"/>
<path d="M31.6265 20.5983C32.4583 20.5983 33.1325 19.924 33.1325 19.0922C33.1325 18.2605 32.4583 17.5862 31.6265 17.5862C30.7948 17.5862 30.1205 18.2605 30.1205 19.0922C30.1205 19.924 30.7948 20.5983 31.6265 20.5983Z" fill="#787878"/>
</svg>
