<svg width="308" height="558" viewBox="0 0 308 558" fill="none" xmlns="http://www.w3.org/2000/svg">
<path d="M22.463 173.719L24.4735 179.171L29.9259 181.182L24.4735 183.192L22.463 188.645L20.4524 183.192L15 181.182L20.4524 179.171L22.463 173.719Z" fill="black"/>
<path d="M272 424.719L274.011 430.171L279.463 432.182L274.011 434.192L272 439.645L269.989 434.192L264.537 432.182L269.989 430.171L272 424.719Z" fill="black"/>
<path d="M300 210.719L302.011 216.171L307.463 218.182L302.011 220.192L300 225.645L297.989 220.192L292.537 218.182L297.989 216.171L300 210.719Z" fill="black"/>
<path d="M219.463 0.71875L221.474 6.17113L226.926 8.18171L221.474 10.1923L219.463 15.6447L217.452 10.1923L212 8.18171L217.452 6.17113L219.463 0.71875Z" fill="black"/>
<path d="M37.463 542.719L39.4735 548.171L44.9259 550.182L39.4735 552.192L37.463 557.645L35.4524 552.192L30 550.182L35.4524 548.171L37.463 542.719Z" fill="black"/>
<path opacity="0.5" d="M3.5 278.719L4.44293 281.276L7 282.219L4.44293 283.162L3.5 285.719L2.55707 283.162L0 282.219L2.55707 281.276L3.5 278.719Z" fill="black"/>
<path opacity="0.5" d="M48.5 59.7188L49.4429 62.2758L52 63.2188L49.4429 64.1617L48.5 66.7188L47.5571 64.1617L45 63.2188L47.5571 62.2758L48.5 59.7188Z" fill="black"/>
<path opacity="0.5" d="M254.037 52.7188L254.98 55.2758L257.537 56.2188L254.98 57.1617L254.037 59.7188L253.094 57.1617L250.537 56.2188L253.094 55.2758L254.037 52.7188Z" fill="black"/>
<path opacity="0.5" d="M268.037 188.719L268.98 191.276L271.537 192.219L268.98 193.162L268.037 195.719L267.094 193.162L264.537 192.219L267.094 191.276L268.037 188.719Z" fill="black"/>
<path opacity="0.5" d="M257.037 374.719L257.98 377.276L260.537 378.219L257.98 379.162L257.037 381.719L256.094 379.162L253.537 378.219L256.094 377.276L257.037 374.719Z" fill="black"/>
<path opacity="0.5" d="M236.037 498.719L236.98 501.276L239.537 502.219L236.98 503.162L236.037 505.719L235.094 503.162L232.537 502.219L235.094 501.276L236.037 498.719Z" fill="black"/>
<path opacity="0.5" d="M57.5 501.719L58.4429 504.276L61 505.219L58.4429 506.162L57.5 508.719L56.5571 506.162L54 505.219L56.5571 504.276L57.5 501.719Z" fill="black"/>
</svg>
